<svg xmlns="http://www.w3.org/2000/svg" viewBox="0 0 602.362 603.39"><path d="M301.181 59.318c-132.88 0-242.179 108.668-242.179 241.927.006 134.159 109.296 242.828 242.18 242.828 132.882.004 242.178-108.67 242.178-242.828 0-133.255-109.296-241.927-242.179-241.927m115.182 357.418v-284.45L129.925 235.079v70.418l94.438-33.926v213.096zM301.18 17.714c156.486 0 283.465 127.358 283.465 283.531.003 157.091-126.979 284.43-283.465 284.43-156.549 0-283.464-127.339-283.464-284.43 0-156.173 126.915-283.53 283.464-283.53" fill="#fff" fill-rule="evenodd"/></svg>