<svg xmlns="http://www.w3.org/2000/svg" xml:space="preserve" viewBox="0 0 512 512"><path d="M66.783 445.217h33.391v33.391H66.783zM33.391 478.609h33.391V512H33.391zM133.565 478.609h33.391V512h-33.391zM367.304 378.435h33.391v33.391h-33.391zM33.391 378.435h33.391v33.391H33.391zM0 411.826h33.391v33.391H0zM478.609 378.435H512v33.391h-33.391zM445.217 411.826h33.391v33.391h-33.391z" style="fill:#006df0"/><path d="M411.826 445.217h33.391v33.391h-33.391zM378.435 478.609h33.391V512h-33.391z" style="fill:#006df0"/><path d="M478.609 178.087v-33.391H445.21l.007-33.392h-55.66V66.783h-33.391V33.391h-33.383V0H189.217v33.391h-33.391v33.392h-33.391v44.521H66.783v33.392H33.391v33.391H0v100.174h33.391v33.391h33.392v33.391h378.434v-33.391h33.392v-33.391H512V178.087z" style="fill:#898890"/><path d="M155.826 33.391h33.391v33.391h-33.391zM33.391 144.696h33.391v33.391H33.391zM33.391 278.261h33.391v33.391H33.391zM189.217 0h133.565v33.391H189.217zM155.826 144.696v33.391h33.391v-33.391zV66.783h-33.391v44.521H66.783v33.392h55.652zM0 178.087h33.391v100.174H0zM389.565 111.304V66.783h-33.391V33.391h-33.391v33.392h33.391v77.913h89.043v-33.392zM478.609 178.087v-33.391h-33.392v33.391zv100.174H512V178.087zM66.783 311.652h33.391v33.391H66.783zM400.696 311.652h44.522v33.391h-44.522z"/><path d="M322.783 144.696h33.391v33.391h-33.391zM445.217 278.261h33.391v33.391h-33.391z"/><path d="M367.304 211.478H166.957v133.565h-33.391v100.174h66.783V512h66.783v-33.391h33.391v-33.391h33.391v-66.783h-33.391v-33.391h33.391v-33.391h33.391V211.478z" style="fill:#ffda44"/><path d="M267.13 445.217h33.391v33.391H267.13zM233.739 445.217v-33.391h-66.782v-66.783h-33.392v100.174h66.783V512h66.782v-33.391h-33.391zM267.13 378.435v33.391h33.392v33.391h33.391v-66.782h-33.391v-33.392H267.13zM300.522 311.652h33.391v33.391h-33.391z"/><path d="M166.957 244.87v100.173h33.391V244.87h133.565v66.782h33.391V211.478H166.957z"/></svg>