<svg xmlns="http://www.w3.org/2000/svg" xml:space="preserve" viewBox="0 0 512 512"><path d="M512 211.478v-33.391H400.696v-66.783h-66.783V0h-33.391v77.913h-89.044V0h-33.391v111.304h-66.783v66.783H0v33.391h77.919v89.044H0v33.391h111.304v66.783h66.783V512h33.391v-77.913h89.044V512h33.391V400.696h66.783v-66.783H512v-33.391h-77.909v-89.044z" style="fill:#ffda44"/><path d="M400.696 77.913h33.391v33.391h-33.391zM434.087 44.522h33.391v33.391h-33.391zM77.913 77.913h33.391v33.391H77.913zM44.522 44.522h33.391v33.391H44.522zM77.913 400.696h33.391v33.391H77.913zM44.522 434.087h33.391v33.391H44.522zM400.696 400.696h33.391v33.391h-33.391z" style="fill:#ffda44"/><path d="M434.087 434.087h33.391v33.391h-33.391z" style="fill:#ffda44"/><path d="M512 211.478v-33.391H400.696v155.826H512v-33.391h-77.913v-89.044zM400.696 77.913h33.391v33.391h-33.391zM434.087 44.522h33.391v33.391h-33.391zM77.913 77.913h33.391v33.391H77.913zM44.522 44.522h33.391v33.391H44.522zM77.913 400.696h33.391v33.391H77.913zM44.522 434.087h33.391v33.391H44.522zM400.696 400.696h33.391v33.391h-33.391z"/><path d="M434.087 434.087h33.391v33.391h-33.391zM144.696 367.304v-33.391h-33.392V178.087h33.392v-33.391h33.391v-33.392h-66.783v66.783H0v33.391h77.913v89.044H0v33.391h111.304v66.783h66.783v-33.392zM333.913 89.043V0h-33.391v77.913h-89.044V0h-33.391v111.304h155.826zM178.087 434.087V512h33.391v-77.913h89.044V512h33.391V400.696H178.087zM333.913 144.696h33.391v33.391h33.392v-66.783h-66.783zM400.696 367.304v-33.391h-33.392v33.391h-33.391v33.392h66.783z"/></svg>