<svg xmlns="http://www.w3.org/2000/svg" xml:space="preserve" viewBox="0 0 512 512"><path d="M478.609 133.565v-33.391h-33.397V66.783h-33.383V55.652h-.003V33.391h-33.391V0H222.609v33.391h-33.392l.005 22.261v11.131h-33.401v33.391h-33.392v33.391H89.043v66.783h33.392v33.391h233.739v33.391h122.435v-33.391H512V133.565z" style="fill:#fff"/><path d="M478.609 356.174v-33.391h-33.392l-.007-33.392h-55.645l-.008-55.652h-33.391v-33.391h-33.383v-33.391H189.217v33.391h-33.391v33.391h-33.391v55.652h-55.66v33.392H33.391v33.391H0v89.043h33.391v33.392h33.392V512h378.434v-33.391h33.392v-33.392H512v-89.043z" style="fill:#e6e6e6"/><path d="M155.826 200.348h33.391v33.391h-33.391zM322.783 322.783h33.391v33.391h-33.391zM33.391 445.217h33.391v33.391H33.391zM189.217 166.957h133.565v33.391H189.217zM122.435 322.783h33.391v33.391h33.391v-33.391h-33.391v-89.044h-33.391v55.652H66.783v33.392zM33.391 356.174h33.392v-33.391H33.391zH0v89.043h33.391zM389.565 289.391v-55.652h-33.391v-33.391h-33.391v33.391h33.391v89.044h89.043v-33.392zM445.217 445.217h33.391v33.391h-33.391zM445.217 322.783h33.391v33.391h-33.391zM478.609 356.174H512v89.043h-33.391zM66.783 478.609h378.435V512H66.783z"/><path d="M155.826 200.348h33.391v33.391h-33.391zM33.391 322.783h33.391v33.391H33.391zM155.826 356.174h33.391v-33.391h-33.391z"/><path d="M33.391 445.217v-89.043H0v89.045h33.391v33.39h33.392v-33.392zM189.217 166.957h133.565v33.391H189.217zM122.435 322.783h33.391v-89.044h-33.391v55.652H66.783v33.392zM478.609 445.217h-33.392v33.392h33.392v-33.39H512v-89.044h-33.391zM66.783 478.609h378.435V512H66.783zM356.174 233.739v89.044h89.043v-33.392h-55.652v-55.652zv-33.391h-33.391v33.391zM445.217 322.783h33.391v33.391h-33.391zM322.783 322.783h33.391v33.391h-33.391zM222.609 100.174H256v33.391h-33.391zM189.217 100.174h33.392V33.391h-33.392v33.392h-33.391v33.391zM122.435 133.565h33.391v-33.391h-33.391zH89.043v66.783h33.392zM478.609 133.565v-33.391h-33.392V66.783h-33.391V33.391h-33.391V0H222.609v33.391h155.826v66.783h66.782v33.391zv100.174H512V133.565zM445.217 233.739h33.391v33.391h-33.391z"/><path d="M345.043 100.174h33.391v33.391h-33.391z"/></svg>