<svg xmlns="http://www.w3.org/2000/svg" xml:space="preserve" viewBox="0 0 512 512"><path d="M478.609 267.13v-33.391h-33.392l-.007-33.391h-55.645l-.008-77.913h-33.391V89.043h-33.383V55.652H189.217v33.391h-33.391v33.392h-33.391v77.913h-55.66v33.391H33.391v33.391H0v122.435h33.391v33.392h33.392v33.391h378.434v-33.391h33.392v-33.392H512V267.13z" style="fill:#e6e6e6"/><path d="M155.826 89.043h33.391v33.391h-33.391zM322.783 233.739h33.391v33.391h-33.391zM33.391 389.565h33.391v33.391H33.391zM189.217 55.652h133.565v33.391H189.217zM122.435 233.739h33.391v33.391h33.391v-33.391h-33.391V122.435h-33.391v77.913H66.783v33.391zM33.391 267.13h33.392v-33.391H33.391zH0v122.435h33.391zM389.565 200.348v-77.913h-33.391V89.043h-33.391v33.392h33.391v111.304h89.043v-33.391zM445.217 389.565h33.391v33.391h-33.391zM445.217 233.739h33.391v33.391h-33.391zM478.609 267.13H512v122.435h-33.391zM66.783 422.957h378.435v33.391H66.783z"/></svg>