<svg xmlns="http://www.w3.org/2000/svg" xml:space="preserve" viewBox="0 0 512 512"><path d="M478.609 189.214v-33.391H445.21l.007-33.11h-55.66v-55.93h-33.391V33.391h-33.383V0H189.217v33.391h-33.391v33.392h-33.391v55.652h-55.66v33.388H33.391v33.391H0v89.047h33.391v33.391h33.392v33.391h378.434v-33.391h33.392v-33.391H512v-89.047zM133.565 411.826h-33.391v-33.391H33.391v33.391H0v66.783h33.391V512h66.783v-33.391h33.391zM322.783 411.826h-33.392v-33.391h-66.782v33.391h-33.392v66.783h33.392V512h66.782v-33.391h33.392zM512 411.826h-33.391v-33.391h-66.783v33.391h-33.391v66.783h33.391V512h66.783v-33.391H512z" style="fill:#e6e6e6"/><path d="M155.826 33.391h33.391v33.391h-33.391zM33.391 155.826h33.391v33.391H33.391zM33.391 278.261h33.391v33.391H33.391zM189.217 0h133.565v33.391H189.217zM122.435 155.826h33.391v33.391h33.391v-33.391h-33.391V66.783h-33.391v55.652H66.783v33.391zM0 189.217h33.391v89.043H0zM478.609 278.261H512v-89.044h-33.391v-33.391h-33.392v33.391h33.392zM66.783 311.652h378.435v33.391H66.783zM356.174 66.783v89.043h89.043v-33.391h-55.652V66.783zV33.391h-33.391v33.392z"/><path d="M322.783 155.826h33.391v33.391h-33.391zM445.217 278.261h33.391v33.391h-33.391zM0 411.826h33.391v66.783H0zM33.391 378.435h66.783v33.391H33.391z"/><path d="M100.174 478.609H33.391V512h66.783zh33.391v-66.783h-33.391zM189.217 411.826h33.391v66.783h-33.391zM222.609 378.435h66.783v33.391h-66.783z"/><path d="M289.391 478.609h-66.782V512h66.782zh33.392v-66.783h-33.392zM378.435 411.826h33.391v66.783h-33.391zM411.826 378.435h66.783v33.391h-66.783z"/><path d="M478.609 411.826v66.783h-66.783V512h66.783v-33.391H512v-66.783z"/></svg>