<svg xmlns="http://www.w3.org/2000/svg" xml:space="preserve" viewBox="0 0 512 512"><path d="M478.609 367.301V333.91h-66.783v-44.519h-33.399V256h-33.391v-33.391H166.957V256h-33.392v33.391h-33.391v44.519H33.391v33.391H0v111.308h33.391V512h445.218v-33.391H512V367.301z" style="fill:#fff"/><path d="M378.435 133.565v-33.391H244.87v33.391h-33.392V256h133.565v33.391h33.392V256h33.391V133.565z" style="fill:#ffda44"/><path d="M133.565 256h33.391v33.391h-33.391z"/><path d="M33.392 367.304h100.173v33.392h33.392v-33.392h-33.392v-77.913h-33.391v44.522H33.391v33.391H.001v111.305h33.391zM478.609 367.304H512v111.304h-33.391zM33.391 478.609h445.217V512H33.391z"/><path d="M378.435 289.391v77.913h100.174v-33.391h-66.783v-44.522zV256h33.391V133.565h-33.391V256h-33.392v33.391zM345.043 367.304h33.391v33.391h-33.391zM411.826 66.783h33.391v33.391h-33.391zM445.217 33.391h33.391v33.391h-33.391zM178.087 66.783h33.391v33.391h-33.391zM144.696 33.391h33.391v33.391h-33.391zM211.478 222.609h-44.521V256h178.086v-33.391H244.87v-89.044h-33.392zM244.87 100.174h133.565v33.391H244.87zM289.391 0h33.391v66.783h-33.391zM445.217 155.826H512v33.391h-66.783zM111.304 155.826h66.783v33.391h-66.783z"/></svg>