<svg xmlns="http://www.w3.org/2000/svg" xml:space="preserve" viewBox="0 0 512 512"><path d="M55.652 411.826h33.391v33.391H55.652zM178.087 411.826h33.391v33.391h-33.391zM289.391 411.826h33.391v33.391h-33.391zM422.957 411.826h33.391v33.391h-33.391zM0 478.609h33.391V512H0zM233.739 478.609h33.391V512h-33.391zM122.435 478.609h33.391V512h-33.391zM356.174 478.609h33.391V512h-33.391zM478.609 478.609H512V512h-33.391z" style="fill:#006df0"/><path d="M478.609 189.214v-33.391H445.21l.007-33.11h-55.66v-55.93h-33.391V33.391h-33.383V0H189.217v33.391h-33.391v33.392h-33.391v55.652h-55.66v33.388H33.391v33.391H0v89.047h33.391v33.391h33.392v33.391h378.434v-33.391h33.392v-33.391H512v-89.047z" style="fill:#898890"/><path d="M155.826 33.391h33.391v33.391h-33.391zM33.391 155.826h33.391v33.391H33.391zM33.391 278.261v-89.044H0v89.044zv33.391h33.392v-33.391zM189.217 0h133.565v33.391H189.217zM122.435 155.826h33.391v33.391h33.391v-33.391h-33.391V66.783h-33.391v55.652H66.783v33.391zM478.609 189.217v89.044h-33.392v33.391h33.392v-33.391H512v-89.044z"/><path d="M66.783 311.652h378.435v33.391H66.783zM356.174 66.783v89.043h89.043v-33.391h-55.652V66.783zV33.391h-33.391v33.392zM445.217 155.826h33.391v33.391h-33.391z"/><path d="M322.783 155.826h33.391v33.391h-33.391z"/></svg>