<svg xmlns="http://www.w3.org/2000/svg" viewBox="0 0 512.004 512.004"><path fill="#fff" d="M411.827 267.127v-66.782h-33.391v-66.782h-33.391V66.782h-33.39V33.391h-33.391V0h-44.522v33.391h-33.391v33.391H166.96v66.781h-33.39v66.782h-33.391v66.782H66.788v144.694h33.391v33.391h33.387v33.389h.004v.001h33.39v-.001h.017V512h178.051v-33.399h.017v.001h33.391v-.001h.003v-33.389h33.388v-33.391h33.391V267.127z"/><path fill="#006df0" d="M100.175 200.345h33.391v66.782h-33.391z"/><path fill="#57a4ff" d="M66.788 411.821h33.391v33.391h33.394-.003v33.391h33.391v-.001h.001V512H345.03v-33.399h33.411v-33.39h33.388V411.82h33.392V267.127h-33.392v-66.782h-33.391v-66.782H345.03h.017V66.782h-33.391V33.391h-33.391V0h-44.521v33.391h-33.391v33.391h-33.391v66.782h33.391V66.782h33.391v66.782h-33.391v66.782h-33.39v-66.782h-33.391v66.782h33.391v66.782h-33.39v44.521h-33.391v-44.521H66.791v144.694zm33.391-33.391v-33.391h33.391v33.391z"/><path d="M100.175 200.356h33.391v66.782h-33.391zM133.566 133.575h33.391v66.782h-33.391zM166.957 66.793h33.391v66.782h-33.391zM200.348 33.402h33.391v33.391h-33.391zM233.739.007h44.521v33.391h-44.521zM378.433 200.356h33.391v66.782h-33.391zM345.042 133.575h33.391v66.782h-33.391zM311.651 66.793h33.391v66.782h-33.391zM278.26 33.402h33.391v33.391H278.26zM345.042 445.223h33.391v33.391h-33.391zM378.433 411.832h33.391v33.391h-33.391z"/><path d="M166.957 478.614h178.085v33.391H166.957zM411.823 267.138h33.391v144.694h-33.391zM133.566 445.223h33.391v33.391h-33.391zM100.175 411.832h33.391v33.391h-33.391zM66.785 267.138h33.391v144.694H66.785z"/></svg>