<svg viewBox="0 0 512.004 512.004" xmlns="http://www.w3.org/2000/svg"><path d="m411.827 267.127v-66.782h-33.391v-66.782h-33.391v-66.781h-33.39v-33.391h-.001-33.39v-33.391h-.001-44.52-.001v33.391h-33.39-.001v33.391h-33.389-.002v66.781h-33.389-.001v66.782h-33.39-.001v66.782h-33.391v144.694h33.391v33.391h.001 33.386v33.389h.004v.001h33.39v-.001h.017v33.399h33.373 111.305 33.373v-33.399h.017v.001h33.391v-.001h.003v-33.389h33.388v-33.391h.001 33.39v-144.694z" fill="#fff"/><path d="m100.175 200.345h33.391v66.782h-33.391z" fill="#006df0"/><path d="m66.788 411.821h33.391v33.391h33.391.003-.003v33.391h33.391v-.001h.001v33.398h178.068v-33.399h33.411v-33.39h33.388v-33.391h33.392v-144.693h-33.392v-66.782h-33.391v-66.782h-33.391-.017.017v-66.781h-33.391v-33.391h-33.391v-33.391h-44.521v33.391h-33.391v33.391h-33.391v66.782h33.391v-66.782h33.391v66.782h-33.391v66.782h-33.39v-66.782h-33.391v66.782h33.391v66.782h-33.39v44.521h-33.391v-44.521h-33.391v144.694h-.003zm33.391-33.391v-33.391h33.391v33.391z" fill="#57a4ff"/><path d="m100.175 200.356h33.391v66.782h-33.391z"/><path d="m133.566 133.575h33.391v66.782h-33.391z"/><path d="m166.957 66.793h33.391v66.782h-33.391z"/><path d="m200.348 33.402h33.391v33.391h-33.391z"/><path d="m233.739.007h44.521v33.391h-44.521z"/><path d="m378.433 200.356h33.391v66.782h-33.391z"/><path d="m345.042 133.575h33.391v66.782h-33.391z"/><path d="m311.651 66.793h33.391v66.782h-33.391z"/><path d="m278.26 33.402h33.391v33.391h-33.391z"/><path d="m345.042 445.223h33.391v33.391h-33.391z"/><path d="m378.433 411.832h33.391v33.391h-33.391z"/><path d="m166.957 478.614h178.085v33.391h-178.085z"/><path d="m411.823 267.138h33.391v144.694h-33.391z"/><path d="m133.566 445.223h33.391v33.391h-33.391z"/><path d="m100.175 411.832h33.391v33.391h-33.391z"/><path d="m66.785 267.138h33.391v144.694h-33.391z"/></svg>