<svg xmlns="http://www.w3.org/2000/svg" viewBox="0 0 720 1200"><defs><style>.cls-1{fill:#fff}.cls-2{fill:none}</style></defs><title>Synth_Symbol_Small_White</title><g id="Layer_27" data-name="Layer 27"><path class="cls-1" d="M240,719.83H345.5a14.27,14.27,0,0,1,2-7.22l-91.42-52.78L240,632,0,696.29v52.65l190.3-78.82Z"/></g><g id="Layer_26" data-name="Layer 26"><path class="cls-1" d="M300,823.93l52.78-91.42a14.4,14.4,0,0,1-5.28-5.29L256.08,780,152.16,720,0,807.85V840c0,11.79.61,23.43,1.72,34.93l126.46-97Z"/></g><g id="Layer_25" data-name="Layer 25"><path class="cls-1" d="M480.4,959.82H374.9a14.26,14.26,0,0,1-2,7.21l91.43,52.79,14.68,29,33.17,117.45a359.37,359.37,0,0,0,66.26-40l-48.33-116.69Z"/></g><g id="Layer_24" data-name="Layer 24"><path class="cls-1" d="M0,647.23,297.88,608l2.12,7.9,52.78,91.42a14.33,14.33,0,0,1,7.22-2V599.82H0Z"/></g><g id="Layer_23" data-name="Layer 23"><path class="cls-1" d="M420,616.08,367.22,707.5a14.48,14.48,0,0,1,5.28,5.29L463.92,660,480,632.16l240,64.31V647.4L422.12,608.18Z"/></g><g id="Layer_22" data-name="Layer 22"><path class="cls-1" d="M420,1063.84,367.22,972.5a14.33,14.33,0,0,1-7.22,2V1200a361.29,361.29,0,0,0,77.87-8.54l-15.75-119.62s-2.16-8-2.17-8"/></g><g id="Layer_21" data-name="Layer 21"><path class="cls-1" d="M420.4,856.08,367.62,947.5a14.4,14.4,0,0,1,5.28,5.29L464.33,900l103.89,60L634,1073.86a360.61,360.61,0,0,0,42.66-61.72l-84.41-110Z"/></g><g id="Layer_20" data-name="Layer 20"><path class="cls-1" d="M420,823.75l-52.78-91.42a14.39,14.39,0,0,1-7.22,2V839.83H600L704.53,944.36a358.29,358.29,0,0,0,13.76-69.61l-126.45-97Z"/></g><g id="Layer_19" data-name="Layer 19"><path class="cls-1" d="M347.9,967.22,256.56,1020s-16.15,27.86-16.15,27.86l-31.79,118.62a357.63,357.63,0,0,0,73.91,25l15.75-119.62s2.16-8,2.17-8l52.73-91.34a14.48,14.48,0,0,1-5.28-5.29"/></g><g id="Layer_18" data-name="Layer 18"><path class="cls-1" d="M480,719.83H374.5a14.26,14.26,0,0,1-2,7.21l91.42,52.79,103.93-60L720,807.67V748.94L529.71,670.12Z"/></g><g id="Layer_17" data-name="Layer 17"><path class="cls-1" d="M15.47,944.36A358,358,0,0,0,43.76,1012l84.41-110L300,855.9l52.78,91.42a14.42,14.42,0,0,1,7.22-2V839.82H120L15.47,944.36"/></g><g id="Layer_16" data-name="Layer 16"><path class="cls-1" d="M240.4,959.82H345.9a14.26,14.26,0,0,1,2-7.21l-91.42-52.78-103.91,60L86.82,1073.68a362,362,0,0,0,55.54,52.54l48.34-116.69,49.7-49.71"/></g><g id="Layer_15" data-name="Layer 15"><path class="cls-1" d="M480,479.83H374.5a14.26,14.26,0,0,1-2,7.21l91.42,52.78L480,567.67l240-64.31V450.71L529.7,529.53Z"/></g><g id="Layer_14" data-name="Layer 14"><path class="cls-1" d="M718.29,325.08l-126.47,97L420,376.07l-52.78,91.42a14.48,14.48,0,0,1,5.28,5.29L463.92,420l103.93,60L720,392.15V360c0-11.79-.61-23.43-1.71-34.92"/></g><g id="Layer_13" data-name="Layer 13"><path class="cls-1" d="M240.4,239.83H345.9a14.26,14.26,0,0,1,2-7.21l-91.42-52.79-14.68-29L208.62,33.38a359.7,359.7,0,0,0-66.26,40.05L190.7,190.12Z"/></g><g id="Layer_12" data-name="Layer 12"><path class="cls-1" d="M420,583.74l-52.78-91.42a14.3,14.3,0,0,1-7.22,2v105.5H720v-47.4L422.12,591.64Z"/></g><g id="Layer_11" data-name="Layer 11"><path class="cls-1" d="M300,583.92l52.78-91.42a14.48,14.48,0,0,1-5.28-5.29L256.08,540,240,567.84,0,503.53V552.6l297.88,39.22Z"/></g><g id="Layer_10" data-name="Layer 10"><path class="cls-1" d="M300.05,136.16l52.73,91.34a14.33,14.33,0,0,1,7.22-2V0a361.29,361.29,0,0,0-77.87,8.54l15.75,119.62s2.16,8,2.17,8"/></g><g id="Layer_9" data-name="Layer 9"><path class="cls-1" d="M300.4,343.92l52.78-91.42a14.4,14.4,0,0,1-5.28-5.29L256.48,300l-103.9-60L86.82,126.14a361.17,361.17,0,0,0-42.66,61.72l84.41,110Z"/></g><g id="Layer_8" data-name="Layer 8"><path class="cls-1" d="M300,375.9l52.78,91.42a14.39,14.39,0,0,1,7.22-2V359.82H120L15.47,255.29A358.29,358.29,0,0,0,1.71,324.9l126.45,97Z"/></g><g id="Layer_7" data-name="Layer 7"><path class="cls-1" d="M372.9,232.78,464.24,180s16.15-27.86,16.15-27.86L512.18,33.56a357.43,357.43,0,0,0-73.91-25L422.52,128.16l-2.16,8-52.74,91.34a14.48,14.48,0,0,1,5.28,5.29"/></g><g id="Layer_6" data-name="Layer 6"><path class="cls-1" d="M240,479.83H345.5a14.26,14.26,0,0,1,2-7.21l-91.42-52.78-103.93,60L0,392v58.73l190.29,78.82Z"/></g><g id="Layer_5" data-name="Layer 5"><path class="cls-1" d="M704.53,255.29a358,358,0,0,0-28.29-67.6l-84.41,110L420,343.75l-52.78-91.42a14.42,14.42,0,0,1-7.22,2V359.83H600L704.53,255.29"/></g><g id="Layer_4" data-name="Layer 4"><path class="cls-1" d="M480.4,239.83H374.9a14.26,14.26,0,0,1-2,7.21l91.43,52.79s103.9-60,103.9-60L634,126a361.57,361.57,0,0,0-55.54-52.54L530.11,190.12,480.4,239.83"/></g><g id="Layer_3" data-name="Layer 3"><rect class="cls-2" width="720" height="1200"/></g></svg>