<svg xmlns="http://www.w3.org/2000/svg" viewBox="0 0 720 1200"><defs><style>.cls-1{fill:#fff}</style></defs><title>Synth_Symbol_Small_White</title><path id="Layer_27" d="M240 719.83h105.5a14.27 14.27 0 0 1 2-7.22l-91.42-52.78L240 632 0 696.29v52.65l190.3-78.82Z" class="cls-1" data-name="Layer 27"/><path id="Layer_26" d="m300 823.93 52.78-91.42a14.4 14.4 0 0 1-5.28-5.29L256.08 780l-103.92-60L0 807.85V840c0 11.79.61 23.43 1.72 34.93l126.46-97Z" class="cls-1" data-name="Layer 26"/><path id="Layer_25" d="M480.4 959.82H374.9a14.26 14.26 0 0 1-2 7.21l91.43 52.79 14.68 29 33.17 117.45a359.4 359.4 0 0 0 66.26-40l-48.33-116.69Z" class="cls-1" data-name="Layer 25"/><path id="Layer_24" d="M0 647.23 297.88 608l2.12 7.9 52.78 91.42a14.33 14.33 0 0 1 7.22-2v-105.5H0Z" class="cls-1" data-name="Layer 24"/><path id="Layer_23" d="m420 616.08-52.78 91.42a14.5 14.5 0 0 1 5.28 5.29L463.92 660 480 632.16l240 64.31V647.4l-297.88-39.22Z" class="cls-1" data-name="Layer 23"/><path id="Layer_22" d="m420 1063.84-52.78-91.34a14.33 14.33 0 0 1-7.22 2V1200a361.3 361.3 0 0 0 77.87-8.54l-15.75-119.62s-2.16-8-2.17-8" class="cls-1" data-name="Layer 22"/><path id="Layer_21" d="m420.4 856.08-52.78 91.42a14.4 14.4 0 0 1 5.28 5.29L464.33 900l103.89 60L634 1073.86a360.6 360.6 0 0 0 42.66-61.72l-84.41-110Z" class="cls-1" data-name="Layer 21"/><path id="Layer_20" d="m420 823.75-52.78-91.42a14.4 14.4 0 0 1-7.22 2v105.5h240l104.53 104.53a358.3 358.3 0 0 0 13.76-69.61l-126.45-97Z" class="cls-1" data-name="Layer 20"/><path id="Layer_19" d="M347.9 967.22 256.56 1020l-16.15 27.86-31.79 118.62a357.6 357.6 0 0 0 73.91 25l15.75-119.62s2.16-8 2.17-8l52.73-91.34a14.5 14.5 0 0 1-5.28-5.29" class="cls-1" data-name="Layer 19"/><path id="Layer_18" d="M480 719.83H374.5a14.26 14.26 0 0 1-2 7.21l91.42 52.79 103.93-60L720 807.67v-58.73l-190.29-78.82Z" class="cls-1" data-name="Layer 18"/><path id="Layer_17" d="M15.47 944.36A358 358 0 0 0 43.76 1012l84.41-110L300 855.9l52.78 91.42a14.4 14.4 0 0 1 7.22-2v-105.5H120z" class="cls-1" data-name="Layer 17"/><path id="Layer_16" d="M240.4 959.82h105.5a14.26 14.26 0 0 1 2-7.21l-91.42-52.78-103.91 60-65.75 113.85a362 362 0 0 0 55.54 52.54l48.34-116.69z" class="cls-1" data-name="Layer 16"/><path id="Layer_15" d="M480 479.83H374.5a14.26 14.26 0 0 1-2 7.21l91.42 52.78L480 567.67l240-64.31v-52.65l-190.3 78.82Z" class="cls-1" data-name="Layer 15"/><path id="Layer_14" d="m718.29 325.08-126.47 97L420 376.07l-52.78 91.42a14.5 14.5 0 0 1 5.28 5.29L463.92 420l103.93 60L720 392.15V360c0-11.79-.61-23.43-1.71-34.92" class="cls-1" data-name="Layer 14"/><path id="Layer_13" d="M240.4 239.83h105.5a14.26 14.26 0 0 1 2-7.21l-91.42-52.79-14.68-29-33.18-117.45a359.7 359.7 0 0 0-66.26 40.05l48.34 116.69Z" class="cls-1" data-name="Layer 13"/><path id="Layer_12" d="m420 583.74-52.78-91.42a14.3 14.3 0 0 1-7.22 2v105.5h360v-47.4l-297.88 39.22Z" class="cls-1" data-name="Layer 12"/><path id="Layer_11" d="m300 583.92 52.78-91.42a14.5 14.5 0 0 1-5.28-5.29L256.08 540 240 567.84 0 503.53v49.07l297.88 39.22Z" class="cls-1" data-name="Layer 11"/><path id="Layer_10" d="m300.05 136.16 52.73 91.34a14.33 14.33 0 0 1 7.22-2V0a361.3 361.3 0 0 0-77.87 8.54l15.75 119.62s2.16 8 2.17 8" class="cls-1" data-name="Layer 10"/><path id="Layer_9" d="m300.4 343.92 52.78-91.42a14.4 14.4 0 0 1-5.28-5.29L256.48 300l-103.9-60-65.76-113.86a361 361 0 0 0-42.66 61.72l84.41 110Z" class="cls-1" data-name="Layer 9"/><path id="Layer_8" d="m300 375.9 52.78 91.42a14.4 14.4 0 0 1 7.22-2v-105.5H120L15.47 255.29A358.3 358.3 0 0 0 1.71 324.9l126.45 97Z" class="cls-1" data-name="Layer 8"/><path id="Layer_7" d="M372.9 232.78 464.24 180l16.15-27.86 31.79-118.58a357.4 357.4 0 0 0-73.91-25l-15.75 119.6-2.16 8-52.74 91.34a14.5 14.5 0 0 1 5.28 5.29" class="cls-1" data-name="Layer 7"/><path id="Layer_6" d="M240 479.83h105.5a14.26 14.26 0 0 1 2-7.21l-91.42-52.78-103.93 60L0 392v58.73l190.29 78.82Z" class="cls-1" data-name="Layer 6"/><path id="Layer_5" d="M704.53 255.29a358 358 0 0 0-28.29-67.6l-84.41 110L420 343.75l-52.78-91.42a14.4 14.4 0 0 1-7.22 2v105.5h240z" class="cls-1" data-name="Layer 5"/><path id="Layer_4" d="M480.4 239.83H374.9a14.26 14.26 0 0 1-2 7.21l91.43 52.79 103.9-60L634 126a361.6 361.6 0 0 0-55.54-52.54l-48.35 116.66z" class="cls-1" data-name="Layer 4"/><path id="Layer_3" d="M0 0h720v1200H0z" data-name="Layer 3" style="fill:none"/></svg>