<svg xmlns="http://www.w3.org/2000/svg" id="Layer_1" data-name="Layer 1" viewBox="0 0 177.4 39.8"><defs><style>.cls-1,.cls-2{fill:#fff;stroke-width:0}.cls-2{fill:#85f}</style></defs><path d="M0 19.1C0 12.4 0 9 1.3 6.5c1.2-2.3 3-4.1 5.2-5.2C9.1 0 12.4 0 19.1 0h1.6c6.7 0 10.1 0 12.6 1.3 2.3 1.2 4.1 3 5.2 5.2 1.3 2.6 1.3 5.9 1.3 12.6v1.6c0 6.7 0 10.1-1.3 12.6-1.2 2.3-3 4.1-5.2 5.2-2.6 1.3-5.9 1.3-12.6 1.3h-1.6c-6.7 0-10.1 0-12.6-1.3-2.3-1.2-4.1-3-5.2-5.2C0 30.7 0 27.4 0 20.7z" class="cls-2"/><path d="M13.4 32.4c-.2 0-.4 0-.6-.2-.4-.2-.6-.6-.6-1V8.5c0-.4.2-.8.6-1q.6-.3 1.2 0l19.9 11.4c.4.2.6.6.6 1s-.2.8-.6 1L14 32.3c-.2 0-.4.2-.6.2Zm.4-23.1v21.2l18.6-10.6z" class="cls-1"/><path d="M25.6 33.2H14.4c-1.3 0-2.5-.7-3.2-1.8l-5.6-9.6c-.7-1.1-.7-2.6 0-3.7s5.6-9.6 5.6-9.6c.7-1.1 1.9-1.8 3.2-1.8h11.2c1.3 0 2.5.7 3.2 1.8l5.6 9.6c.7 1.1.7 2.6 0 3.7l-5.6 9.6c-.7 1.1-1.9 1.8-3.2 1.8M7.8 19.3c-.2.3-.2.8 0 1.1l5.6 9.6c.2.3.6.5.9.5h11.2c.4 0 .8-.2 1-.5l5.6-9.6c.2-.3.2-.8 0-1.1l-5.6-9.6c-.2-.3-.6-.5-1-.5H14.3c-.4 0-.8.2-.9.5z" class="cls-1"/><path d="M14.4 32.2c-.5 0-.9 0-1.4-.4-.8-.5-1.3-1.4-1.3-2.3V10.3c0-1 .5-1.8 1.3-2.3s1.9-.5 2.7 0l16.8 9.6c.9.5 1.4 1.4 1.4 2.3s-.5 1.9-1.4 2.3l-16.8 9.6c-.4.2-.9.4-1.3.4m0-22v19.3h.1l16.8-9.6-16.8-9.7z" class="cls-1"/><path d="M56 29.2c-.7 0-1.3-.6-1.3-1.3V13.2H50c-.7 0-1.3-.6-1.3-1.3s.6-1.3 1.3-1.3h12c.7 0 1.3.6 1.3 1.3s-.6 1.3-1.3 1.3h-4.7v14.7c0 .7-.6 1.3-1.3 1.3m12 0c-.7 0-1.3-.6-1.3-1.3v-16c0-.7.6-1.3 1.3-1.3s1.3.6 1.3 1.3v16c0 .7-.6 1.3-1.3 1.3m22 0c-.7 0-1.3-.6-1.3-1.3V17.4l-4.5 9c0 .3-.3.5-.6.7-.2 0-.4.1-.6.1s-.4 0-.6-.1c-.3-.2-.5-.4-.6-.7l-4.5-9v10.5c0 .7-.6 1.3-1.3 1.3s-1.3-.6-1.3-1.3v-16c0-.6.4-1.1 1-1.3.6-.1 1.2.1 1.5.7L83 23l5.8-11.7c.2-.5.7-.7 1.2-.7s1.2.6 1.2 1.3v16c0 .7-.6 1.3-1.3 1.3zm17-.2H96c-.7 0-1.3-.6-1.3-1.3s.6-1.3 1.3-1.3h11c.7 0 1.3.6 1.3 1.3s-.6 1.3-1.3 1.3m-2-7.8h-9c-.7 0-1.3-.6-1.3-1.3s.6-1.3 1.3-1.3h9c.7 0 1.3.6 1.3 1.3s-.6 1.3-1.3 1.3m2-7.8H96c-.7 0-1.3-.6-1.3-1.3s.6-1.3 1.3-1.3h11c.7 0 1.3.6 1.3 1.3s-.6 1.3-1.3 1.3m12 16.8c-4 0-7.3-3.3-7.3-7.3v-11c0-.7.6-1.3 1.3-1.3s1.3.6 1.3 1.3v11c0 2.6 2.1 4.7 4.7 4.7s4.7-2.1 4.7-4.7v-11c0-.7.6-1.3 1.3-1.3s1.3.6 1.3 1.3v11c0 4-3.3 7.3-7.3 7.3m21-1h-8c-.7 0-1.3-.6-1.3-1.3v-16c0-.7.6-1.3 1.3-1.3s1.3.6 1.3 1.3v14.7h6.7c.7 0 1.3.6 1.3 1.3s-.6 1.3-1.3 1.3m19 0c-.5 0-1-.3-1.2-.8L152 15.1l-5.8 13.3c-.3.7-1.1 1-1.7.7-.7-.3-1-1.1-.7-1.7l6.9-15.9c.1-.3.4-.6.7-.8.2 0 .4 0 .5-.1.2 0 .4 0 .5.1.4.2.6.4.7.8l6.9 15.9c.3.7 0 1.4-.7 1.7-.2 0-.3.1-.5.1zm17 0c-.5 0-1.1-.3-1.2-.9l-1.7-5c-.1-.4-.4-.9-.7-1.2-.6-.6-1.3-.9-2.2-.9h-4.9v6.7c0 .7-.6 1.3-1.3 1.3s-1.3-.6-1.3-1.3v-16c0-.7.6-1.3 1.3-1.3h8c2.9 0 5.3 2.4 5.3 5.3s-1.1 3.8-2.8 4.7c.5.6.8 1.2 1.1 1.9l1.7 5c.2.7-.1 1.4-.8 1.6h-.5Zm-5.8-10.6h1.8c1.5 0 2.7-1.2 2.7-2.7s-1.2-2.7-2.7-2.7h-6.7v5.4z" class="cls-2"/></svg>