<svg height="635" width="1182" xmlns="http://www.w3.org/2000/svg"><path d="m297.41692 312.07563-16.3331 115.22286-40.9813-6.23629-56.7206-33.26021-.8909-3.26663s4.4545-2.37572 4.7515-3.56359c.297-1.18786-.297-8.31505.297-10.98775.5939-2.67269 5.0484-4.75145 5.6423-6.53325.594-1.7818-.2969-3.86056.8909-4.75146 1.1879-.8909 7.4242-1.18786 7.1272-5.93932s-4.1575-7.12719-5.9393-10.98775-1.7818-8.61202-.8909-10.69078.8909-7.42415 1.1878-9.20595c.297-1.7818-1.7817-6.83022 2.6727-8.90899 4.4545-2.07876 8.909 4.15753 10.6908 2.96967 1.7818-1.18787 4.4545-13.36348 4.4545-15.14528 0-1.78179.297-4.15752.297-4.15752z" fill="#ed553b" fill-rule="evenodd" opacity=".9" stroke="#000"/></svg>