<svg xmlns="http://www.w3.org/2000/svg" width="1182" height="635"><path fill="#ed553b" fill-rule="evenodd" stroke="#000" d="m297.417 312.076-16.333 115.222-40.981-6.236-56.721-33.26-.891-3.267s4.455-2.375 4.752-3.563-.297-8.315.297-10.988c.593-2.673 5.048-4.751 5.642-6.533s-.297-3.86.89-4.752c1.189-.89 7.425-1.188 7.128-5.939s-4.158-7.127-5.94-10.988-1.781-8.612-.89-10.69.89-7.425 1.188-9.206c.297-1.782-1.782-6.83 2.672-8.91 4.455-2.078 8.91 4.158 10.691 2.97s4.455-13.363 4.455-15.145.297-4.158.297-4.158z" opacity=".9"/></svg>