<svg height="635" width="1182" xmlns="http://www.w3.org/2000/svg"><path d="m77.068119 164.18649-.297-10.69078 68.005201 21.08459-18.1149 60.5811 67.4113 98.59275s.297 6.83023 1.4848 8.61202c1.1879 1.7818 8.909 7.42416 6.2363 10.98775s-5.9393 4.75146-7.1272 6.23629c-1.1878 1.48483 3.2667 3.26663-1.1878 5.04842-4.4545 1.7818-5.3454.59394-5.9393 3.5636-.594 2.96966 2.0787 13.06651 0 14.55134-2.0788 1.48483-5.0485 2.07876-5.0485 2.07876l-38.9025-7.72112-3.5636-2.67269 1.1878-12.17562s-6.8302-8.61201-8.612-10.39381-5.9393-4.15753-5.9393-4.15753v-3.56359s-5.6424-.29697-10.0968-4.15753c-4.4545-3.86056-2.3758-7.42415-8.3151-9.50291-5.9393-2.07877-13.066501-2.6727-13.363501-5.34539-.2969-2.6727-1.4848-9.79989-1.1878-14.84831.2969-5.04843-12.1757-28.21178-10.9878-30.29055 1.1879-2.07876 2.3757-7.42415 2.6727-10.09685.297-2.67269-4.7515-5.64235-5.6424-8.31505-.8909-2.67269 0-12.17561 0-12.17561l5.0485 2.96966s-1.1879-2.96966 0-4.45449c1.1878-1.48483 3.5636-5.93932 3.5636-5.93932s-4.7515 2.07876-9.206 1.18786-5.9393-11.28471-6.2363-12.47258c-.2969-1.18786-5.0484-13.06651-5.0484-13.06651s.5939-15.7392.8909-18.70886c.297-2.96967-3.5636-12.17562-3.5636-13.95741 0-1.7818 3.8606-4.15753 5.0484-6.23629 1.1879-2.07876-.5939-3.5636.594-5.64236 1.1878-2.07876 6.2363-4.75146 6.5332-6.23629.297-1.48483-.2969-11.87864-.2969-11.87864z" fill="#173f5f" fill-rule="evenodd" opacity=".9" stroke="#000"/></svg>