<svg xmlns="http://www.w3.org/2000/svg" width="1182" height="635"><path fill="#173f5f" fill-rule="evenodd" stroke="#000" d="m77.068 164.186-.297-10.69 68.005 21.084-18.115 60.581 67.412 98.593s.297 6.83 1.485 8.612c1.187 1.782 8.909 7.424 6.236 10.988s-5.94 4.751-7.127 6.236c-1.188 1.485 3.266 3.267-1.188 5.049-4.455 1.781-5.346.594-5.94 3.563-.593 2.97 2.08 13.067 0 14.552-2.078 1.484-5.048 2.078-5.048 2.078l-38.902-7.72-3.564-2.673 1.188-12.176s-6.83-8.612-8.612-10.394-5.94-4.157-5.94-4.157v-3.564s-5.642-.297-10.096-4.158c-4.455-3.86-2.376-7.424-8.315-9.502-5.94-2.08-13.067-2.673-13.364-5.346s-1.485-9.8-1.188-14.848c.297-5.049-12.175-28.212-10.988-30.29 1.188-2.08 2.376-7.425 2.673-10.098.297-2.672-4.751-5.642-5.642-8.315s0-12.175 0-12.175l5.048 2.97s-1.188-2.97 0-4.455 3.564-5.94 3.564-5.94-4.752 2.08-9.206 1.188-5.94-11.284-6.236-12.472c-.297-1.188-5.049-13.067-5.049-13.067s.594-15.739.891-18.708c.297-2.97-3.564-12.176-3.564-13.958s3.861-4.157 5.049-6.236-.594-3.564.594-5.643 6.236-4.751 6.533-6.236-.297-11.878-.297-11.878z" opacity=".9"/></svg>