<svg height="635" width="1182" xmlns="http://www.w3.org/2000/svg"><path d="m668.30192 458.81575-3.3598-13.43916 45.7771-6.71957 5.4597 7.55952 43.2572-2.93982s3.3598 2.93982 5.0397 2.93982 1.6799-11.33929 1.6799-11.33929l10.4994 1.6799s2.9398 16.37897 5.8796 20.99868c2.9398 4.6197 15.119 18.47883 14.2791 16.79894-.84-1.6799 4.6197 16.37897 6.7196 20.5787 2.0998 4.19974 9.2394 14.69908 9.6594 19.73876.4199 5.03968 5.4596 21.83862 2.5198 26.8783-2.9398 5.03969-11.3393 13.01918-14.6991 8.39948-3.3598-4.61971-10.4993-15.11905-13.4391-15.53903-2.9398-.41997-.42-.83994-.84-3.77976-.4199-2.93981-6.2996-5.87963-6.2996-5.87963s.42-1.25992-.4199-2.93981c-.84-1.6799-10.4994-3.35979-11.7593-6.71958s-.84-13.85913-.84-13.85913-6.2996-1.67989-6.2996-4.6197c0-2.93982 6.2996-13.43916.84-19.31879-5.4597-5.87963-12.1792-4.61971-16.379-10.49934-4.1997-5.87963-7.5595-11.75926-12.1792-11.33928-4.6197.41997-15.539 11.33928-21.4187 11.33928-5.8796 0-5.4596-3.35978-8.3994-5.45965s-9.2394-6.71958-13.8592-7.13955c-4.6197-.41998-6.2996 3.77976-11.3392 4.19973-5.0397.41998-10.0794 1.6799-10.0794.41998z" fill="#ed553b" fill-rule="evenodd" opacity=".9" stroke="#000"/></svg>