<svg xmlns="http://www.w3.org/2000/svg" width="1182" height="635"><path fill="#ed553b" fill-rule="evenodd" stroke="#000" d="m668.302 458.816-3.36-13.44 45.777-6.719 5.46 7.56 43.257-2.94s3.36 2.94 5.04 2.94 1.68-11.34 1.68-11.34l10.5 1.68s2.939 16.38 5.879 20.999c2.94 4.62 15.119 18.479 14.279 16.799s4.62 16.379 6.72 20.578c2.1 4.2 9.239 14.7 9.659 19.74s5.46 21.838 2.52 26.878-11.34 13.019-14.7 8.399-10.499-15.119-13.439-15.539-.42-.84-.84-3.78-6.3-5.88-6.3-5.88.42-1.26-.42-2.94-10.498-3.359-11.758-6.719-.84-13.859-.84-13.859-6.3-1.68-6.3-4.62 6.3-13.439.84-19.318-12.18-4.62-16.379-10.5-7.56-11.759-12.18-11.339c-4.619.42-15.538 11.34-21.418 11.34s-5.46-3.36-8.4-5.46-9.239-6.72-13.858-7.14c-4.62-.42-6.3 3.78-11.34 4.2s-10.08 1.68-10.08.42z" opacity=".9"/></svg>