<svg height="635" width="1182" xmlns="http://www.w3.org/2000/svg"><path d="m776.65512 436.55715s-1.26-10.07937.4199-13.43916c1.6799-3.35978 6.7196-15.53902 6.7196-15.53902s-11.7592-12.5992-14.6991-16.37896c-2.9398-3.77977-13.8591-11.33929-20.1587-19.73876s-.8399-7.13955-9.2394-9.23942-9.6594-1.67989-8.3995-3.35979c1.2599-1.67989 1.6799-5.03968 1.6799-5.03968l-39.0575 3.35979s1.2599 20.5787 3.3598 25.61838c2.0998 5.03969 13.4391 28.97818 13.4391 31.49802s-3.7797 4.19974-2.9398 10.07937c.84 5.87963 2.5198 13.01918 2.5198 13.01918l5.0397 8.81944 44.0972-2.93982s3.3598 2.93982 5.0397 2.93982 2.0999-10.49934 2.0999-10.49934z" fill="#20639b" fill-rule="evenodd" opacity=".9" stroke="#000"/></svg>