<svg xmlns="http://www.w3.org/2000/svg" width="1182" height="635"><path fill="#173f5f" fill-rule="evenodd" stroke="#000" d="M585.474 184.677s0 13.067 2.673 14.255c2.673 1.187 7.424 5.048 8.612 6.236s.594 4.157 2.079 5.642c1.484 1.485 4.751 4.158 4.751 4.158s0 7.424-1.485 8.315-8.612 5.048-8.909 7.127-.89 10.097-1.782 11.879c-.89 1.781-2.375 2.97-2.375 2.97l-1.188 5.939s-6.236-3.861-8.018-4.158-18.412.89-21.085.89-26.43-.593-26.43-.593l-14.848-.89s-3.267-14.85-4.158-17.819-6.533-19.897-7.127-21.678 2.079-8.315.297-10.394-2.97-7.127-2.079-8.315 19.303-1.782 23.164-2.079c3.86-.297 28.805-.594 31.181-.594s27.321-.594 26.727-.89z" opacity=".9"/></svg>