<svg height="635" width="1182" xmlns="http://www.w3.org/2000/svg"><path d="m585.47412 184.67715s0 13.06651 2.6727 14.25438c2.6727 1.18786 7.4241 5.04842 8.612 6.23629 1.1879 1.18786.5939 4.15752 2.0788 5.64235 1.4848 1.48483 4.7514 4.15753 4.7514 4.15753s0 7.42415-1.4848 8.31505-8.612 5.04842-8.909 7.12719c-.297 2.07876-.8909 10.09685-1.7818 11.87864-.8909 1.7818-2.3757 2.96966-2.3757 2.96966l-1.1879 5.93933s-6.2363-3.86056-8.0181-4.15753-18.4119.8909-21.0846.8909-26.4299-.59393-26.4299-.59393l-14.8484-.8909s-3.2666-14.84831-4.1575-17.81797-6.5332-19.89673-7.1272-21.67853c-.5939-1.78179 2.0788-8.31505.297-10.39381-1.7818-2.07877-2.9697-7.12719-2.0788-8.31506.8909-1.18786 19.3028-1.78179 23.1634-2.07876 3.8606-.29696 28.8057-.59393 31.1814-.59393 2.3758 0 27.3209-.59393 26.727-.8909z" fill="#173f5f" fill-rule="evenodd" opacity=".9" stroke="#000"/></svg>