<svg height="635" width="1182" xmlns="http://www.w3.org/2000/svg"><path d="m219.90882 38.866774 10.3938 2.375729s-.5939 12.472578-.5939 18.114934c0 5.642357 1.7818 15.44224 4.7514 17.817969 2.9697 2.375729 3.5636 7.127188 5.6424 10.096848 2.0787 2.96966 5.9393 5.34539 5.3454 9.205953-.594 3.860563 1.4848 8.315053-1.1879 12.472583-2.6727 4.15752-6.8302 6.83022-3.5636 8.01808 3.2666 1.18787 9.7999 1.48483 9.7999 1.48483s.5939 8.31505 2.6727 11.87865c2.0787 3.56359 3.5636 9.79988 7.4241 11.28471 3.8606 1.48483 12.4726 2.96966 16.3332 2.37573 3.8605-.59393 5.6423-2.07876 7.4241-1.48483s2.6727 3.56359 2.6727 3.56359l-8.909 53.75087s-10.6907.29697-13.9574-1.48483c-3.2666-1.78179-15.1452-3.56359-21.0846-5.04842-5.9393-1.48483-9.5029.59393-9.5029.59393l-43.0601-11.87864s1.7818-23.46033 2.9697-26.72696c1.1878-3.26662 5.9393-15.14527 5.3454-18.11493-.594-2.96966-2.3758-2.07876-3.5636-4.75146-1.1879-2.6727 14.2544-19.89673 14.5513-22.86639.297-2.96966-2.0787-6.23629-1.4848-8.61202.5939-2.375733 12.1756-62.362893 11.5817-62.065926z" fill="#f77f00" fill-rule="evenodd" opacity=".9" stroke="#000"/></svg>