<svg xmlns="http://www.w3.org/2000/svg" width="1182" height="635"><path fill="#f77f00" fill-rule="evenodd" stroke="#000" d="m219.909 38.867 10.394 2.376s-.594 12.472-.594 18.114 1.782 15.443 4.751 17.818 3.564 7.128 5.643 10.097c2.078 2.97 5.939 5.346 5.345 9.206s1.485 8.315-1.188 12.473c-2.673 4.157-6.83 6.83-3.564 8.018s9.8 1.485 9.8 1.485.594 8.315 2.673 11.878 3.564 9.8 7.424 11.285 12.473 2.97 16.333 2.376 5.643-2.079 7.424-1.485 2.673 3.564 2.673 3.564l-8.909 53.75s-10.69.297-13.957-1.484c-3.267-1.782-15.145-3.564-21.085-5.049s-9.503.594-9.503.594l-43.06-11.879s1.782-23.46 2.97-26.726c1.188-3.267 5.94-15.146 5.345-18.115-.594-2.97-2.376-2.08-3.563-4.752-1.188-2.673 14.254-19.897 14.55-22.866.298-2.97-2.078-6.237-1.484-8.612s12.176-62.363 11.582-62.066z" opacity=".9"/></svg>