<svg xmlns="http://www.w3.org/2000/svg" width="1182" height="635"><path fill="#f6d55c" fill-rule="evenodd" stroke="#000" d="M638.037 203.089s2.673 7.127 4.158 9.8 5.048 6.236 5.048 6.236-.297 13.66-.297 17.224 4.158 27.321 4.158 32.073-.891 14.848-1.485 19.005c-.594 4.158-2.97 14.255-2.97 14.255l-1.782 3.266v3.861l-3.266 2.079-1.485 4.454s-8.315 0-9.503.891-5.345 1.782-5.345 1.782-2.97-10.394-5.049-11.879-13.066-10.987-13.066-10.987l1.485-13.958h-7.425s-2.97-5.048-5.345-9.503-7.424-8.018-8.315-11.284.297-13.66.89-15.146c.595-1.485 2.97-2.672 2.97-2.672l1.188-11.582s4.158-3.267 5.94-4.752 4.157-4.157 4.157-4.157l.594-8.018s-2.97-2.079-3.86-3.267c-.891-1.188-2.97-5.345-2.97-5.345z" opacity=".9"/></svg>