<svg height="635" width="1182" xmlns="http://www.w3.org/2000/svg"><path d="m638.03712 203.08905s2.6727 7.12719 4.1575 9.79988c1.4849 2.6727 5.0484 6.23629 5.0484 6.23629s-.2969 13.66045-.2969 17.22404 4.1575 27.32088 4.1575 32.07234-.8909 14.84831-1.4848 19.00584c-.594 4.15752-2.9697 14.25437-2.9697 14.25437l-1.7818 3.26663v3.86056l-3.2666 2.07876-1.4848 4.45449s-8.3151 0-9.503.8909c-1.1878.8909-5.3453 1.7818-5.3453 1.7818s-2.9697-10.39382-5.0485-11.87865c-2.0787-1.48483-13.0665-10.98774-13.0665-10.98774l1.4849-13.95741h-7.4242s-2.9697-5.04843-5.3454-9.50292-7.4241-8.01809-8.315-11.28471c-.8909-3.26663.2969-13.66045.8909-15.14528.5939-1.48483 2.9696-2.67269 2.9696-2.67269l1.1879-11.58168s4.1575-3.26663 5.9393-4.75146 4.1575-4.15752 4.1575-4.15752l.594-8.01809s-2.9697-2.07876-3.8606-3.26663c-.8909-1.18786-2.9697-5.34539-2.9697-5.34539z" fill="#f6d55c" fill-rule="evenodd" opacity=".9" stroke="#000"/></svg>