<svg height="635" width="1182" xmlns="http://www.w3.org/2000/svg"><path d="m689.11532 212.88893s-1.1879 16.03618 0 21.38157c1.1878 5.34539 4.4545 11.28471 4.4545 17.22403 0 5.93933 1.4848 22.8664 1.4848 22.8664s-5.3454 2.07876-6.5333 4.15752c-1.1878 2.07877 1.4849 8.90899-4.7514 10.69078-6.2363 1.7818-12.7696 4.75146-12.7696 4.75146s-8.612 2.6727-12.4725 2.96966c-3.8606.29697-12.4726 4.4545-12.4726 4.4545s.8909-9.79989 4.1575-15.44224c3.2666-5.64236-.297-24.35123-.297-27.02392 0-2.6727-3.2666-19.59977-3.2666-24.94516s.297-14.25437.297-14.25437 3.2666 1.48483 6.2363.59393c2.9696-.8909 5.3454-5.34539 5.3454-5.34539z" fill="#3caea3" fill-rule="evenodd" opacity=".9" stroke="#000"/></svg>