<svg xmlns="http://www.w3.org/2000/svg" width="1182" height="635"><path fill="#3caea3" fill-rule="evenodd" stroke="#000" d="M689.115 212.889s-1.188 16.036 0 21.381c1.188 5.346 4.455 11.285 4.455 17.225 0 5.939 1.485 22.866 1.485 22.866s-5.346 2.079-6.534 4.157c-1.187 2.08 1.485 8.91-4.751 10.691S671 293.961 671 293.961s-8.612 2.672-12.472 2.97c-3.86.296-12.473 4.454-12.473 4.454s.891-9.8 4.158-15.442c3.266-5.643-.297-24.352-.297-27.024s-3.267-19.6-3.267-24.945.297-14.255.297-14.255 3.267 1.485 6.236.594c2.97-.89 5.346-5.345 5.346-5.345z" opacity=".9"/></svg>