<svg height="635" width="1182" xmlns="http://www.w3.org/2000/svg"><path d="m418.57912 256.83992s40.0904.8909 47.8116 1.48483c7.7211.59394 27.9148 2.37573 33.8541 1.48484 5.9393-.8909 23.7573-.29697 23.7573-.29697l4.4545 2.67269s-1.4848 7.12719-.297 8.90899c1.1879 1.7818 7.4242 5.93932 8.0181 8.90898s-.5939 19.59977-.5939 23.16336c0 3.5636 2.0787 21.0846 2.0787 21.0846s-25.2421-.59393-32.6662-.59393c-7.4242 0-35.636-.29697-39.4965-.29697-3.8606 0-32.9633-.8909-36.2299-1.48483s-16.6301-1.18787-16.6301-1.18787 2.0788-26.13302 2.0788-29.99358 3.8605-33.85414 3.8605-33.85414z" fill="#3caea3" fill-rule="evenodd" opacity=".9" stroke="#000"/></svg>