<svg xmlns="http://www.w3.org/2000/svg" width="1182" height="635"><path fill="#3caea3" fill-rule="evenodd" stroke="#000" d="M418.58 256.84s40.09.89 47.81 1.485c7.722.594 27.916 2.375 33.855 1.485 5.94-.891 23.757-.297 23.757-.297l4.455 2.672s-1.485 7.128-.297 8.91c1.188 1.781 7.424 5.939 8.018 8.908s-.594 19.6-.594 23.164 2.079 21.084 2.079 21.084-25.243-.594-32.667-.594-35.636-.297-39.496-.297-32.963-.89-36.23-1.484-16.63-1.188-16.63-1.188 2.079-26.133 2.079-29.994 3.86-33.854 3.86-33.854z" opacity=".9"/></svg>