<svg xmlns="http://www.w3.org/2000/svg" width="1182" height="635"><path fill="#173f5f" fill-rule="evenodd" stroke="#000" d="m645.758 327.815-1.188-2.97s21.085-1.485 29.697-1.782 49.89-5.048 49.89-5.048 5.94-3.267 7.721-5.345 4.158-5.94 5.94-8.019 7.424-7.424 7.424-7.424-5.94-2.97-7.721-5.939c-1.782-2.97-.594-7.721-4.158-11.879s-5.048-5.939-7.72-5.642c-2.674.297-2.674 2.673-5.05 2.673s-5.939-1.188-9.205-1.782-5.643-.297-6.83-1.782-3.564-3.563-3.564-3.563l-5.345.296-.297 4.455s-6.534 1.782-8.612 5.94c-2.08 4.157-2.376 8.908-5.643 10.393s-8.018 2.97-9.8 2.97-1.188 1.782-4.454 2.672-9.206 1.485-13.66 2.376-6.83 2.376-8.613 4.455c-1.781 2.078-.594 6.236-.594 6.236l-2.97 1.188-1.484 5.048s-5.048.891-6.533.891-3.86 1.485-3.86 1.485.89 6.236 0 7.721-3.861 5.049-3.861 5.049 8.018-1.782 10.69-1.782 9.8-.594 9.8-.891z" opacity=".9"/></svg>