<svg height="635" width="1182" xmlns="http://www.w3.org/2000/svg"><path d="m645.75822 327.81483-1.1878-2.96966s21.0846-1.48483 29.6966-1.7818c8.612-.29696 49.8903-5.04842 49.8903-5.04842s5.9393-3.26663 7.7211-5.34539 4.1575-5.93932 5.9393-8.01809c1.7818-2.07876 7.4242-7.42415 7.4242-7.42415s-5.9393-2.96966-7.7211-5.93932c-1.7818-2.96967-.594-7.72112-4.1576-11.87865s-5.0484-5.93932-7.7211-5.64236c-2.6727.29697-2.6727 2.6727-5.0484 2.6727s-5.9393-1.18787-9.206-1.7818c-3.2666-.59393-5.6423-.29696-6.8302-1.78179-1.1878-1.48484-3.5636-3.5636-3.5636-3.5636l-5.3454.29697-.2969 4.45449s-6.5333 1.7818-8.6121 5.93932c-2.0787 4.15753-2.3757 8.90899-5.6423 10.39382s-8.0181 2.96966-9.7999 2.96966-1.1879 1.7818-4.4545 2.67269c-3.2666.8909-9.2059 1.48484-13.6604 2.37573-4.4545.8909-6.8302 2.37573-8.612 4.4545-1.7818 2.07876-.594 6.23628-.594 6.23628l-2.9696 1.18787-1.4849 5.04842s-5.0484.8909-6.5332.8909c-1.4849 0-3.8606 1.48483-3.8606 1.48483s.8909 6.23629 0 7.72112-3.8605 5.04843-3.8605 5.04843 8.018-1.7818 10.6907-1.7818 9.7999-.59393 9.7999-.8909z" fill="#173f5f" fill-rule="evenodd" opacity=".9" stroke="#000"/></svg>