<svg height="635" width="1182" xmlns="http://www.w3.org/2000/svg"><path d="m626.15852 449.27398s-3.2667 5.64236-1.7818 7.12719c1.4848 1.48483 5.0484 3.56359 5.0484 3.56359s-.8909.59394-.297 2.07877 2.0788 2.37573 2.0788 2.37573l-3.5636 5.64235 6.5332.59394s-5.9393 3.26662-4.1575 6.23628c1.7818 2.96967 8.3151 5.93933 9.5029 6.23629 1.1879.29697.297 3.86056-2.0787 4.4545-2.3758.59393-10.3938-5.34539-11.8787-5.34539-1.4848 0-2.9696 3.56359-5.6423 3.56359s-7.4242-.59393-7.4242-.59393-.5939 3.86056-4.7514 2.37573c-4.1576-1.48483-4.4545-2.96967-6.8303-6.53326-2.3757-3.56359-3.2666-4.75146-7.4241-5.34539s-5.0484 1.18786-9.206 2.07876c-4.1575.8909-10.3938 1.7818-12.7695.59394-2.3757-1.18787-9.206-4.15753-12.4726-4.15753s-5.6424.8909-5.6424.8909 2.3758-9.79988 3.2667-13.95741 1.7818-14.55134.5939-16.03617-4.7514-4.15753-4.4545-7.12719c.297-2.96966-3.5636-10.09685-3.5636-10.09685l-.5939-21.67853 50.1873.59394s5.3454 4.15752 4.7514 5.93932c-.5939 1.7818-1.4848 5.34539-1.4848 5.34539s2.3757.29696 1.7818 3.86056c-.5939 3.56359-4.4545 8.31505-5.6424 11.58168-1.1878 3.26663-4.4545 13.66044-2.6727 14.55134s7.4242-1.18787 12.4726-.8909 17.818 2.07876 18.115 2.07876z" fill="#3caea3" fill-rule="evenodd" opacity=".9" stroke="#000"/></svg>