<svg xmlns="http://www.w3.org/2000/svg" width="1182" height="635"><path fill="#3caea3" fill-rule="evenodd" stroke="#000" d="M626.159 449.274s-3.267 5.642-1.782 7.127 5.048 3.564 5.048 3.564-.89.594-.297 2.079 2.079 2.375 2.079 2.375l-3.564 5.643 6.534.594s-5.94 3.266-4.158 6.236 8.315 5.94 9.503 6.236c1.188.297.297 3.86-2.079 4.455-2.376.594-10.394-5.346-11.878-5.346-1.485 0-2.97 3.564-5.643 3.564s-7.424-.594-7.424-.594-.594 3.86-4.751 2.376c-4.158-1.485-4.455-2.97-6.83-6.534s-3.267-4.751-7.425-5.345-5.048 1.188-9.206 2.079c-4.157.89-10.394 1.782-12.77.594s-9.205-4.158-12.472-4.158-5.642.891-5.642.891 2.376-9.8 3.266-13.957 1.782-14.552.594-16.037-4.751-4.157-4.454-7.127-3.564-10.097-3.564-10.097l-.594-21.678 50.188.594s5.345 4.157 4.751 5.94c-.594 1.78-1.485 5.345-1.485 5.345s2.376.296 1.782 3.86-4.454 8.315-5.642 11.582c-1.188 3.266-4.455 13.66-2.673 14.551s7.424-1.188 12.473-.89 17.818 2.078 18.115 2.078z" opacity=".9"/></svg>