<svg height="635" width="1182" xmlns="http://www.w3.org/2000/svg"><path d="m860.76172 173.39244s24.3512-4.15753 27.0239-4.45449c2.6727-.29697 6.2363-1.48484 7.4242 1.18786 1.1878 2.6727 3.8605 6.23629 5.9393 5.04842 2.0788-1.18786 1.1879-2.67269 2.9697-3.26662 1.7818-.59394 5.04841.59393 7.12711-.29697 2.0788-.8909 6.2363-3.26663 5.9394-5.04842-.297-1.7818-.297-4.75146-2.3758-4.75146-2.0787 0-2.0787 4.75146-5.0484 4.75146-2.9696 0-10.98771-3.86056-11.28471-5.93933-.297-2.07876 2.0788-4.75145 1.4848-7.12718-.5939-2.37573.297-5.64236-2.0787-5.64236-2.3758 0-4.7515 5.64236-7.7211 5.93932-2.9697.29697-13.3635 1.48483-15.7393 2.07877-2.3757.59393-13.6604 3.26662-13.6604 3.26662z" fill="#f6d55c" fill-rule="evenodd" opacity=".9" stroke="#000"/></svg>