<svg xmlns="http://www.w3.org/2000/svg" width="1182" height="635"><path fill="#f6d55c" fill-rule="evenodd" stroke="#000" d="M860.762 173.392s24.35-4.157 27.024-4.454c2.672-.297 6.236-1.485 7.424 1.188s3.86 6.236 5.94 5.048c2.078-1.188 1.187-2.672 2.969-3.266s5.048.594 7.127-.297 6.236-3.267 5.94-5.049c-.298-1.782-.298-4.751-2.376-4.751-2.08 0-2.08 4.751-5.049 4.751s-10.988-3.86-11.285-5.94c-.297-2.078 2.08-4.75 1.485-7.126-.594-2.376.297-5.643-2.078-5.643s-4.752 5.643-7.722 5.94-13.363 1.485-15.739 2.078c-2.376.594-13.66 3.267-13.66 3.267z" opacity=".9"/></svg>