<svg height="635" width="1182" xmlns="http://www.w3.org/2000/svg"><path d="m831.65902 265.74891s-5.3454-22.56943-1.7818-24.35123c3.5636-1.78179 5.6424-2.67269 5.6424-2.67269s-2.6727 9.79988-1.1879 14.55134 1.4848 7.42415 3.8606 8.61202c2.3757 1.18786 6.8302 4.45449 6.8302 4.45449s-1.1879 18.70887.8909 18.70887 5.6424-17.22404 5.6424-18.70887 1.7818-9.20595 1.7818-9.20595l-10.9878.29697-6.2363-25.53909-58.5023 10.69078 3.8605 8.31505s8.3151-8.90898 15.1453-8.90898 7.4242.29696 9.206 1.48483c1.7818 1.18786 3.2666 3.56359 3.2666 3.56359s6.5333 3.26663 6.2363 2.37573 2.9696-5.64236 2.9696-5.64236l7.1272 3.26663-5.0484 5.34539s-.297 4.75146-.297 6.53326c0 1.78179-.8909 4.15752 1.1879 5.34539 2.0788 1.18786 11.2847 2.07876 10.3938 1.48483z" fill="#f6d55c" fill-rule="evenodd" opacity=".9" stroke="#000"/></svg>