<svg xmlns="http://www.w3.org/2000/svg" width="1182" height="635"><path fill="#f6d55c" fill-rule="evenodd" stroke="#000" d="M831.659 265.749s-5.345-22.57-1.782-24.351c3.564-1.782 5.643-2.673 5.643-2.673s-2.673 9.8-1.188 14.551 1.485 7.424 3.86 8.612 6.83 4.455 6.83 4.455-1.187 18.709.891 18.709 5.643-17.224 5.643-18.71 1.782-9.205 1.782-9.205l-10.988.297-6.236-25.54-58.503 10.692 3.86 8.315s8.316-8.91 15.146-8.91 7.424.298 9.206 1.485 3.267 3.564 3.267 3.564 6.533 3.267 6.236 2.376 2.97-5.643 2.97-5.643l7.127 3.267-5.049 5.345s-.297 4.752-.297 6.534c0 1.781-.89 4.157 1.188 5.345 2.079 1.188 11.285 2.079 10.394 1.485z" opacity=".9"/></svg>