<svg xmlns="http://www.w3.org/2000/svg" width="1182" height="635"><path fill="#173f5f" fill-rule="evenodd" stroke="#000" d="M897.289 141.617s-2.376-.297-4.158-2.376-13.066-38.605-13.066-38.605 5.345-10.988 5.642-12.77-1.188-22.57.594-25.539 5.94-13.363 7.72-13.363 2.08 3.563 4.158 3.563c2.08 0 5.049-6.236 6.83-6.533 1.783-.297 6.237-1.485 8.019 1.485s6.83 26.43 8.909 27.915c2.078 1.484 6.236 2.375 6.533 3.563s-.297 4.455 1.188 5.346c1.485.89 8.315 1.781 9.206 4.157.89 2.376 1.485 5.94-1.485 8.315-2.97 2.376-5.345 2.079-5.94 3.267-.593 1.188.298 2.97-3.86 6.236-4.157 3.267-7.721 1.188-9.8 2.079-2.079.89-1.188 6.236-3.86 9.503s-7.424 4.751-9.503 6.533-7.424 17.818-7.127 17.224z" opacity=".9"/></svg>