<svg height="635" width="1182" xmlns="http://www.w3.org/2000/svg"><path d="m897.28852 141.61706s-2.3757-.29697-4.1575-2.37573-13.0665-38.60559-13.0665-38.60559 5.3454-10.987756 5.6424-12.769556c.2969-1.78179-1.1879-22.569424.5939-25.539085 1.7818-2.969662 5.9393-13.363477 7.7211-13.363477s2.0788 3.563594 4.1575 3.563594c2.0788 0 5.0485-6.236289 6.8303-6.533255 1.78181-.296966 6.23621-1.484831 8.01801 1.484831 1.7818 2.969661 6.83025 26.429986 8.90895 27.914817 2.0788 1.484831 6.2363 2.375729 6.5333 3.563594.297 1.187864-.297 4.454491 1.1879 5.345391 1.4848.8909 8.315 1.7818 9.2059 4.15752.8909 2.37573 1.4848 5.93933-1.4848 8.315063-2.9697 2.37573-5.3454 2.07876-5.9394 3.266623-.5939 1.18787.297 2.96967-3.8605 6.23629-4.1575 3.26663-7.7211 1.18786-9.79985 2.07876-2.0788.8909-1.1879 6.23629-3.8606 9.50292s-7.4241 4.75146-9.50291 6.53325c-2.0787 1.7818-7.4241 17.81797-7.1272 17.22404z" fill="#173f5f" fill-rule="evenodd" opacity=".9" stroke="#000"/></svg>