<svg height="635" width="1182" xmlns="http://www.w3.org/2000/svg"><g fill="#173f5f" fill-rule="evenodd" opacity=".9" stroke="#000"><path d="m632.09782 132.41111s2.6727 8.31505 3.5636 10.09685 2.3757 2.37573 2.3757 2.37573 3.5636-2.07876 3.5636-4.15753c0-2.07876-.8909-5.93932 1.7818-8.01808 2.6727-2.07877 10.6908-1.7818 11.8786-1.7818 1.1879 0 .297-6.23629 5.3454-7.12719 5.0485-.8909 10.0969-2.96966 12.7696-2.67269 2.6727.29696 5.0484 3.86056 6.2363 3.26662 1.1878-.59393.5939-2.96966 2.3757-3.26662 1.7818-.29697 4.7514.59393 5.3454-.8909.5939-1.48483-1.1879-5.34539-4.4545-6.23629s-8.3151-.59393-8.3151-.59393 1.7818-2.37573-2.6727-4.15753-5.9393 2.37573-8.9089 2.37573c-2.9697 0-4.7515 0-6.8303 1.48483-2.0787 1.48483-1.7818 3.26663-3.5636 3.56359-1.7818.29697-12.7695.29697-12.7695.29697s-3.5636-5.04842-6.2363-6.23629c-2.6727-1.18786-8.315-.59393-9.5029-2.07876s-2.0788-4.75146 0-7.12719c2.0788-2.375723 4.7514-4.454493 4.7514-4.454493h-3.2666l-13.9574 14.551343s-4.1575 0-6.8302.8909-8.3151 5.04842-8.3151 5.04842 10.9878 6.53326 13.9574 7.42416c2.9697.8909 6.2363 3.26662 10.0969 3.86056 3.8606.59393 11.5817 3.26662 11.5817 3.56359z"/><path d="m658.82472 215.56163 30.2906-2.37573.5939.8909 16.6301-3.26663 6.2363-7.72112s.5939-3.56359 2.0788-8.01808c1.4848-4.4545 5.6423-5.34539 5.9393-8.31506.297-2.96966-2.3757-10.39381-3.2666-13.66044s-2.3758-8.90898-6.8303-9.50291c-4.4545-.59394-11.5816 5.93932-11.5816 5.93932s-2.3758-3.26663.2969-7.12719 4.7515-7.42415 4.7515-10.69078-2.3757-6.83022-2.6727-10.09685 3.2666-5.34539-.8909-7.12719c-4.1575-1.78179-18.7089-5.34539-21.3816-4.75146-2.6727.59394-2.3757 4.15753-3.2666 7.12719s-2.3757 9.20595-2.6727 10.39382c-.297 1.18786-9.7999 3.56359-10.9877 4.75146-1.1879 1.18786-1.7818 8.31505-3.2667 10.98774-1.4848 2.6727-.2969 12.17561 0 15.73921.297 3.56359 6.8303 8.90898 5.3454 13.95741-1.4848 5.04842 3.2666 10.09685-.5939 14.55134-3.8606 4.45449-3.8606 9.50291-4.7515 8.31505z"/></g></svg>