<svg xmlns="http://www.w3.org/2000/svg" width="1182" height="635"><g fill="#173f5f" fill-rule="evenodd" stroke="#000" opacity=".9"><path d="M632.098 132.411s2.673 8.315 3.563 10.097 2.376 2.376 2.376 2.376 3.564-2.08 3.564-4.158-.891-5.94 1.782-8.018 10.69-1.782 11.878-1.782.297-6.236 5.346-7.127c5.048-.89 10.096-2.97 12.77-2.673 2.672.297 5.048 3.861 6.235 3.267s.594-2.97 2.376-3.267 4.752.594 5.346-.89c.593-1.485-1.188-5.346-4.455-6.237s-8.315-.594-8.315-.594 1.782-2.375-2.673-4.157-5.94 2.375-8.909 2.375-4.751 0-6.83 1.485-1.782 3.267-3.564 3.564c-1.781.297-12.77.297-12.77.297s-3.563-5.049-6.235-6.236c-2.673-1.188-8.315-.594-9.503-2.08s-2.08-4.75 0-7.126 4.751-4.455 4.751-4.455h-3.266l-13.958 14.551s-4.157 0-6.83.891-8.315 5.049-8.315 5.049 10.988 6.533 13.957 7.424c2.97.89 6.237 3.267 10.097 3.86 3.86.594 11.582 3.267 11.582 3.564zM658.825 215.562l30.29-2.376.594.89 16.63-3.266 6.237-7.721s.594-3.564 2.078-8.018c1.485-4.455 5.643-5.345 5.94-8.315s-2.376-10.394-3.267-13.66-2.376-8.91-6.83-9.503c-4.455-.594-11.582 5.939-11.582 5.939s-2.376-3.267.297-7.127 4.752-7.424 4.752-10.691-2.376-6.83-2.673-10.097 3.267-5.345-.891-7.127-18.709-5.346-21.382-4.752c-2.672.594-2.375 4.158-3.266 7.128s-2.376 9.206-2.673 10.393-9.8 3.564-10.988 4.752-1.781 8.315-3.266 10.988-.297 12.175 0 15.739 6.83 8.909 5.345 13.957c-1.485 5.049 3.267 10.097-.594 14.552-3.86 4.454-3.86 9.502-4.751 8.315z"/></g></svg>