<svg xmlns="http://www.w3.org/2000/svg" width="1182" height="635"><path fill="#3caea3" fill-rule="evenodd" stroke="#000" d="M585.771 184.677s-.89-11.285-5.642-13.363c-4.752-2.08-4.752-6.237-9.8-7.424s-4.455 1.484-7.127-2.673c-2.673-4.158-2.08-10.097-2.08-12.77s.892-8.909 1.189-11.284 5.345-4.158 5.642-6.237-2.673-12.472-1.188-13.066 3.86.89 3.86-1.782 5.94-8.612 7.425-10.988 5.642-7.127 9.8-9.503c4.157-2.375 16.63-4.157 13.957-6.83s-5.94-.89-8.612-1.782c-2.672-.89-3.563-2.078-6.236-2.078s-10.394 2.97-12.77 2.672c-2.375-.297-1.484-1.782-4.157-2.97-2.673-1.187-5.642-.89-6.83-1.187s-3.86-4.158-5.346-5.346c-1.485-1.188-16.63.297-16.63.297s-1.782-4.157-4.454-4.454-5.346-.297-5.346-.297l-3.86-10.394h-3.564l-2.079 7.424-25.836-.297v16.63c0 1.782 4.158 9.503 3.86 14.255-.296 4.751 2.08 20.193 2.08 22.272s.594 4.752 1.188 7.127c.593 2.376-2.673 7.128-1.782 10.394s4.751 6.533 4.751 6.533l-.297 40.388z" opacity=".9"/></svg>