<svg height="635" width="1182" xmlns="http://www.w3.org/2000/svg"><path d="m585.77112 184.67715s-.8909-11.28471-5.6424-13.36348c-4.7515-2.07876-4.7515-6.23628-9.7999-7.42415-5.0484-1.18786-4.4545 1.48483-7.1272-2.67269-2.6727-4.15753-2.0787-10.09685-2.0787-12.76955 0-2.67269.8909-8.90898 1.1878-11.28471.297-2.37573 5.3454-4.15753 5.6424-6.23629s-2.6727-12.47258-1.1879-13.06651c1.4849-.59393 3.8606.8909 3.8606-1.7818 0-2.67269 5.9393-8.61202 7.4241-10.98774 1.4849-2.37573 5.6424-7.127193 9.7999-9.502923 4.1575-2.375733 16.6301-4.157523 13.9574-6.830223-2.6727-2.67269-5.9393-.8909-8.612-1.7818-2.6727-.89089-3.5636-2.07876-6.2363-2.07876s-10.3938 2.96966-12.7695 2.6727c-2.3758-.29697-1.4849-1.7818-4.1575-2.96967-2.6727-1.18786-5.6424-.89089-6.8303-1.18786-1.1878-.29697-3.8605-4.157525-5.3454-5.34539-1.4848-1.187864-16.6301.296966-16.6301.296966s-1.7818-4.157526-4.4545-4.454492-5.3453-.296966-5.3453-.296966l-3.8606-10.393815h-3.5636l-2.0788 7.424154-25.836-.296966v16.630099c0 1.7818 4.1575 9.502923 3.8605 14.254386-.2969 4.75145 2.0788 20.19369 2.0788 22.27246 0 2.07876.5939 4.75145 1.1879 7.12718.5939 2.37573-2.6727 7.12719-1.7818 10.39382s4.7514 6.53325 4.7514 6.53325l-.2969 40.3874z" fill="#3caea3" fill-rule="evenodd" opacity=".9" stroke="#000"/></svg>