<svg height="635" width="1182" xmlns="http://www.w3.org/2000/svg"><path d="m614.57682 334.05112-3.8606 8.01809 10.0969.29696s2.9696-8.61202 4.4545-10.98774c1.4848-2.37573 4.1575-12.76955 4.1575-12.76955l-5.3454-.29696s-2.0788-8.61202-4.1575-11.28472c-2.0788-2.67269-12.7696-10.98775-12.7696-10.98775l.594-13.9574-6.2363-1.7818s-5.0485-8.90899-7.4242-11.58168c-2.3757-2.6727-8.612-7.72112-8.315-10.09685.2969-2.37573 1.1878-6.83022 1.1878-6.83022s-5.9393-5.04843-10.3938-5.04843-15.7392 1.18787-19.3028 1.18787-39.7935-1.18787-39.7935-1.18787 1.4849 8.90899 4.7515 11.58168c3.2666 2.6727 7.1272 2.07877 7.1272 4.4545s-2.0788 7.72112-.5939 9.79988c1.4848 2.07876 6.2362 5.04842 6.8302 7.12719.5939 2.07876 2.3757 40.98132 2.0787 44.84188-.2969 3.86056.297 10.98775.297 10.98775z" fill="#20639b" fill-rule="evenodd" opacity=".9" stroke="#000"/></svg>