<svg xmlns="http://www.w3.org/2000/svg" width="1182" height="635"><path fill="#20639b" fill-rule="evenodd" stroke="#000" d="m614.577 334.051-3.86 8.018 10.096.297s2.97-8.612 4.455-10.988 4.157-12.77 4.157-12.77l-5.345-.296s-2.08-8.612-4.158-11.285-12.77-10.988-12.77-10.988l.595-13.957-6.237-1.782s-5.048-8.909-7.424-11.581c-2.376-2.673-8.612-7.722-8.315-10.097.297-2.376 1.188-6.83 1.188-6.83s-5.94-5.049-10.394-5.049-15.74 1.188-19.303 1.188-39.793-1.188-39.793-1.188 1.485 8.91 4.751 11.582 7.128 2.079 7.128 4.454-2.08 7.721-.594 9.8c1.484 2.079 6.236 5.049 6.83 7.127.594 2.08 2.376 40.982 2.079 44.842s.297 10.988.297 10.988z" opacity=".9"/></svg>