<svg height="635" width="1182" xmlns="http://www.w3.org/2000/svg"><path d="m613.70532 363.48175 34.0179-1.67989s0 61.31613.42 67.19576c.4199 5.87963 3.7797 30.65807 3.7797 30.65807l-14.6991.41998-5.8796 5.03968-2.9398-1.25992v-4.61971s-2.5198 0-3.7798-2.93982c-1.2599-2.93981.42-6.71957.42-6.71957l-23.0985-2.09987s-6.7196 2.93982-7.5596.83995c-.8399-2.09987 1.26-9.65939 2.0999-12.59921.84-2.93981 5.8796-7.9795 6.7196-11.33928.8399-3.35979-1.6799-3.77977-1.6799-5.45966s2.5198-5.45966.8399-7.9795-2.9398-2.09987-2.9398-5.45965c0-3.35979-.4199-5.45966-1.2599-8.81945-.8399-3.35979 15.1191-32.75794 15.539-33.17791z" fill="#20639b" fill-rule="evenodd" opacity=".9" stroke="#000"/></svg>