<svg height="635" width="1182" xmlns="http://www.w3.org/2000/svg"><path d="m231.19352 42.430367s46.3267 8.018086 55.2357 9.205951c8.909 1.187864 41.8722 5.939322 47.5146 7.127187 5.6423 1.187865 30.8844 4.751458 39.4965 5.048424 8.612.296967 26.133 1.484831 26.133 1.484831s-.5939 28.508754-2.0788 37.12077c-1.4848 8.61202-2.9696 47.81155-2.9696 47.81155l-105.423-14.25438-2.3757 8.90899s-.8909-2.07876-3.2667-2.07876c-2.3757 0-5.3454 1.18786-10.3938 1.18786s-11.2847 1.18786-13.9574-2.96966c-2.6727-4.15753-8.315-22.86639-8.315-22.86639s-10.3939.29696-10.9878-2.07877 4.7515-6.53325 5.3454-8.61202c.5939-2.07876-.297-4.75145-.297-7.42415 0-2.672693 1.7818-2.375723 1.1879-5.345396-.5939-2.96966-4.4545-5.34539-6.2363-7.42415s-.8909-3.56359-2.9697-6.533254c-2.0787-2.969662-4.1575-4.751459-5.6423-8.908985s.8909-29.102682 0-29.399648z" fill="#ed553b" fill-rule="evenodd" opacity=".9" stroke="#000"/></svg>