<svg xmlns="http://www.w3.org/2000/svg" width="1182" height="635"><path fill="#ed553b" fill-rule="evenodd" stroke="#000" d="M231.194 42.43s46.326 8.018 55.235 9.206c8.91 1.188 41.872 5.94 47.515 7.128 5.642 1.187 30.884 4.751 39.496 5.048s26.133 1.485 26.133 1.485-.594 28.509-2.078 37.12c-1.485 8.613-2.97 47.812-2.97 47.812l-105.423-14.254-2.376 8.909s-.89-2.08-3.266-2.08-5.346 1.189-10.394 1.189-11.285 1.188-13.958-2.97c-2.672-4.157-8.315-22.866-8.315-22.866s-10.394.297-10.987-2.079 4.751-6.533 5.345-8.612-.297-4.751-.297-7.424 1.782-2.376 1.188-5.346-4.455-5.345-6.236-7.424-.891-3.563-2.97-6.533-4.158-4.751-5.642-8.909.89-29.103 0-29.4z" opacity=".9"/></svg>