<svg xmlns="http://www.w3.org/2000/svg" width="1182" height="635"><path fill="#ed553b" fill-rule="evenodd" stroke="#000" d="m793.034 346.263-17.639 2.52-5.88-6.3s-15.538 0-20.158 2.52-6.3 2.94-9.24 3.78-6.3 2.94-6.3 2.94l-19.318 3.36s-2.1-5.88 3.36-10.5 12.599-8.4 14.279-10.08 1.68-5.46 5.46-7.559 7.14 1.68 9.659-2.1 6.3-10.08 6.3-10.08 18.898-2.099 26.878-3.359 65.936-13.44 65.936-13.44l1.68-2.939s9.659 13.02 10.919 15.96c1.26 2.939 3.78 11.758-2.1 15.958s-13.86 13.44-16.379 13.86-8.4 3.779-9.24 6.719-2.52 11.339-5.04 12.599-7.979 3.78-7.979 3.78-9.659-.42-12.599-4.62-11.759-12.18-12.599-13.02z" opacity=".9"/></svg>