<svg height="635" width="1182" xmlns="http://www.w3.org/2000/svg"><path d="m793.03402 346.26284-17.6389 2.51984-5.8796-6.29961s-15.539 0-20.1587 2.51985c-4.6197 2.51984-6.2996 2.93981-9.2394 3.77976-2.9398.83994-6.2996 2.93981-6.2996 2.93981l-19.3188 3.35979s-2.0999-5.87963 3.3598-10.49934c5.4596-4.61971 12.5992-8.39947 14.2791-10.07936 1.6799-1.6799 1.6799-5.45966 5.4596-7.55953 3.7798-2.09986 7.1396 1.6799 9.6594-2.09986 2.5199-3.77977 6.2996-10.07937 6.2996-10.07937s18.8988-2.09987 26.8783-3.35979 65.9359-13.43915 65.9359-13.43915l1.6799-2.93982s9.6594 13.01918 10.9193 15.959c1.2599 2.93981 3.7797 11.75926-2.0999 15.95899-5.8796 4.19974-13.8591 13.43916-16.379 13.85913-2.5198.41997-8.3994 3.77976-9.2394 6.71958-.8399 2.93981-2.5198 11.33928-5.0397 12.5992-2.5198 1.25992-7.9795 3.77976-7.9795 3.77976s-9.6593-.41997-12.5992-4.6197c-2.9398-4.19974-11.7592-12.17924-12.5992-13.01918z" fill="#ed553b" fill-rule="evenodd" opacity=".9" stroke="#000"/></svg>