<svg height="635" width="1182" xmlns="http://www.w3.org/2000/svg"><path d="m496.38422 70.939117s-1.1878 16.333137-.2969 18.708867 3.8605 3.26663 4.1575 9.502923c.297 6.236283 1.7818 21.381553 1.7818 23.757283s2.6727 8.01809 1.7818 9.50292-2.0788 3.56359-2.0788 3.56359-16.0361-.89089-23.1633-1.78179-23.7573-2.07877-29.3997-2.07877c-5.6423 0-26.7269-1.18786-31.4784-1.78179-4.7514-.59394-23.7573-.59394-23.7573-.59394s2.9697-23.46032 3.2667-26.13302c.2969-2.67269 1.4848-23.460323 1.7818-26.72695.2969-3.266628.8909-11.58168.8909-11.58168s40.6843 2.375729 44.2479 3.563594c3.5636 1.187864 27.3209.593932 31.4784 1.484831 4.1575.890898 21.0846.593932 20.7876.593932z" fill="#20639b" fill-rule="evenodd" opacity=".9" stroke="#000"/></svg>