<svg xmlns="http://www.w3.org/2000/svg" width="1182" height="635"><path fill="#20639b" fill-rule="evenodd" stroke="#000" d="M496.384 70.94s-1.188 16.332-.297 18.708 3.86 3.267 4.158 9.503c.297 6.236 1.782 21.381 1.782 23.757s2.672 8.018 1.781 9.503-2.078 3.564-2.078 3.564-16.036-.891-23.164-1.782-23.757-2.079-29.4-2.079-26.726-1.188-31.478-1.782c-4.751-.594-23.757-.594-23.757-.594s2.97-23.46 3.267-26.133 1.484-23.46 1.781-26.727.891-11.581.891-11.581 40.685 2.375 44.248 3.563c3.564 1.188 27.321.594 31.479 1.485s21.084.594 20.787.594z" opacity=".9"/></svg>