<svg height="635" width="1182" xmlns="http://www.w3.org/2000/svg"><path d="m386.20982 232.78567 29.6966 4.45449 1.4849 20.49066s40.0904.29697 43.06.29697c2.9697 0 29.9936 1.48483 32.6663 1.48483h31.1815s-4.4545-2.96966-6.2363-11.87865c-1.7818-8.90898-3.8606-19.89673-5.6424-22.56942-1.7818-2.6727-2.6727-10.69078-4.4545-13.36348s-1.4848-5.93932-1.4848-5.93932-8.0181-6.83022-13.3635-6.83022-9.2059 2.67269-9.2059 2.67269-3.2667-4.45449-5.6424-5.04842c-2.3757-.59394-22.5694-2.07877-26.133-2.07877s-23.7573-.59393-26.43-1.18786-17.521-2.07876-22.8664-2.07876-10.6908.29696-12.1756.89089c-1.4848.59394-2.9697 23.7573-3.5636 24.94516-.5939 1.18787-1.1879 15.44224-.8909 15.73921z" fill="#f77f00" fill-rule="evenodd" opacity=".9" stroke="#000"/></svg>