<svg xmlns="http://www.w3.org/2000/svg" width="1182" height="635"><path fill="#f77f00" fill-rule="evenodd" stroke="#000" d="m386.21 232.786 29.696 4.454 1.485 20.49s40.09.298 43.06.298 29.994 1.485 32.667 1.485h31.181s-4.454-2.97-6.236-11.879-3.86-19.897-5.643-22.57c-1.781-2.672-2.672-10.69-4.454-13.363s-1.485-5.94-1.485-5.94-8.018-6.83-13.363-6.83-9.206 2.673-9.206 2.673-3.267-4.454-5.643-5.048-22.57-2.079-26.133-2.079-23.757-.594-26.43-1.188-17.52-2.079-22.866-2.079-10.69.297-12.176.891c-1.484.594-2.97 23.758-3.563 24.945-.594 1.188-1.188 15.443-.891 15.74z" opacity=".9"/></svg>