<svg height="635" width="1182" xmlns="http://www.w3.org/2000/svg"><path d="m843.83462 193.28917 16.6301 8.01809-.5939 4.45449s-.297 1.78179-.5939 3.56359c-.297 1.7818 3.2666 2.6727 3.5636 4.45449.2969 1.7818-1.1879 2.37573-1.1879 4.4545 0 2.07876 1.4848 8.01808.5939 9.79988-.8909 1.78179-5.9393 7.12719-5.9393 8.61202s.5939 3.26662.5939 3.26662-2.0787 6.23629-3.2666 5.04843c-1.1878-1.18787 0-3.5636-1.1878-4.75146-1.1879-1.18786-3.8606-3.86056-5.0485-3.86056-1.1878 0-2.0787.59393-2.0787.59393l-3.5636-8.31505s3.5636-2.6727 4.1575-5.93932c.5939-3.26663 2.6727-4.15753.8909-6.23629s-3.8606-1.48483-4.1575-4.75146c-.297-3.26663-1.1879-10.69078-.8909-12.76954.2969-2.07877 2.0787-6.23629 2.0787-5.64236z" fill="#20639b" fill-rule="evenodd" opacity=".9" stroke="#000"/></svg>