<svg xmlns="http://www.w3.org/2000/svg" width="1182" height="635"><path fill="#20639b" fill-rule="evenodd" stroke="#000" d="m843.835 193.29 16.63 8.017-.594 4.455-.594 3.563c-.297 1.782 3.267 2.673 3.564 4.455.296 1.782-1.188 2.376-1.188 4.454 0 2.08 1.484 8.018.594 9.8-.891 1.782-5.94 7.127-5.94 8.612s.594 3.267.594 3.267-2.079 6.236-3.266 5.048c-1.188-1.188 0-3.563-1.188-4.751s-3.86-3.86-5.049-3.86c-1.188 0-2.078.593-2.078.593l-3.564-8.315s3.564-2.673 4.157-5.94c.594-3.266 2.673-4.157.891-6.235s-3.86-1.485-4.157-4.752-1.188-10.69-.891-12.77c.297-2.078 2.079-6.236 2.079-5.642z" opacity=".9"/></svg>