<svg xmlns="http://www.w3.org/2000/svg" width="1182" height="635"><path fill="#ed553b" fill-rule="evenodd" stroke="#000" d="m844.726 193.586 16.333 8.018-1.188 5.049s3.86-2.97 7.424-4.158 8.909-1.782 10.69-2.97c1.783-1.187 9.8-6.236 9.8-7.72s.595-3.267.595-3.267-11.285 3.266-12.77 4.751-7.721 7.721-9.503 6.236-5.345-2.672-5.345-4.157-1.188-19.303-.891-23.163.297-16.63 0-17.818-3.564-9.8-4.158-10.988-3.563-4.158-4.157-5.94c-.594-1.781-2.079-12.472-2.376-15.442s-2.079-5.939-2.079-5.939l-23.46 5.048s-.891 3.267-3.86 6.237c-2.97 2.97-5.643 5.939-6.237 11.284s.891 10.097-2.376 15.74c-3.266 5.642-.89 7.72-5.939 7.72-5.048 0-16.927 1.486-18.412 1.486s-4.751-1.485-8.018.297c-3.267 1.781-8.018 4.454-7.127 6.83s4.157 5.048 4.157 5.048l-3.86 9.206s-7.127 3.86-6.83 6.236 5.642 2.97 8.018 2.673c2.375-.297 51.375-9.503 51.375-9.503s7.127-3.86 10.097-1.485 4.157 4.752 5.642 6.237c1.485 1.484 5.345 4.454 4.455 4.454z" opacity=".9"/></svg>