<svg height="635" width="1182" xmlns="http://www.w3.org/2000/svg"><path d="m844.72552 193.58614 16.3332 8.01808-1.1879 5.04843s3.8606-2.96967 7.4242-4.15753 8.9089-1.7818 10.6907-2.96966c1.7818-1.18787 9.7999-6.23629 9.7999-7.72112s.594-3.26663.594-3.26663-11.2848 3.26663-12.7696 4.75146-7.7211 7.72112-9.5029 6.23629-5.3454-2.6727-5.3454-4.15753-1.1879-19.3028-.8909-23.16336.297-16.6301 0-17.81797c-.297-1.18786-3.5636-9.79988-4.1575-10.98774-.594-1.18787-3.5636-4.15753-4.1575-5.93933-.594-1.78179-2.0788-12.47257-2.3758-15.44223-.2969-2.96967-2.0787-5.93933-2.0787-5.93933l-23.4604 5.04843s-.8909 3.26662-3.8605 6.23629c-2.9697 2.96966-5.6424 5.93932-6.2363 11.28471s.8909 10.09685-2.3757 15.7392c-3.2667 5.64236-.8909 7.72112-5.9394 7.72112-5.0484 0-16.927 1.48484-18.4119 1.48484-1.4848 0-4.7514-1.48484-8.018.29696-3.2667 1.7818-8.0181 4.45449-7.1272 6.83022s4.1575 5.04843 4.1575 5.04843l-3.8606 9.20595s-7.1272 3.86056-6.8302 6.23629 5.6424 2.96966 8.0181 2.67269c2.3757-.29696 51.3751-9.50291 51.3751-9.50291s7.1272-3.86056 10.0969-1.48484c2.9696 2.37573 4.1575 4.75146 5.6423 6.23629 1.4849 1.48483 5.3454 4.4545 4.4545 4.4545z" fill="#ed553b" fill-rule="evenodd" opacity=".9" stroke="#000"/></svg>