<svg xmlns="http://www.w3.org/2000/svg" width="1182" height="635"><path fill="#20639b" fill-rule="evenodd" stroke="#000" d="M755.042 200.713s-8.018 1.188-10.394 2.673-2.673 4.455-5.642 5.642-.594.594-5.94 1.782c-5.345 1.188-8.315 5.346-12.175 5.346s-3.564-3.267-8.315-3.861-7.425-1.782-12.473-.297-10.69 2.97-10.69 2.97-.892 17.818.89 22.57c1.782 4.75 3.267 18.114 3.267 20.787s1.188 12.175 1.188 12.175l5.642-.89s2.97 3.563 5.345 4.454 11.582 2.376 14.255 2.376 3.86-2.376 5.048-2.376 9.206 4.157 9.206 4.157 2.97-8.908 3.564-11.878 8.315-9.206 10.988-11.582 8.315-9.8 8.315-9.8 2.375-17.818 2.375-20.193-4.751-23.164-4.454-24.055z" opacity=".9"/></svg>