<svg height="635" width="1182" xmlns="http://www.w3.org/2000/svg"><path d="m755.04182 200.71332s-8.0181 1.18787-10.3939 2.6727c-2.3757 1.48483-2.6727 4.45449-5.6423 5.64235-2.9697 1.18787-.5939.59394-5.9393 1.7818-5.3454 1.18787-8.3151 5.34539-12.1756 5.34539-3.8606 0-3.5636-3.26663-8.3151-3.86056s-7.4242-1.78179-12.4726-.29696-10.6908 2.96966-10.6908 2.96966-.8909 17.81797.8909 22.56942c1.7818 4.75146 3.2667 18.11494 3.2667 20.78763 0 2.6727 1.1878 12.17562 1.1878 12.17562l5.6424-.8909s2.9697 3.56359 5.3454 4.45449 11.5817 2.37573 14.2544 2.37573c2.6726 0 3.8605-2.37573 5.0484-2.37573 1.1878 0 9.2059 4.15753 9.2059 4.15753s2.9697-8.90899 3.5636-11.87865c.594-2.96966 8.3151-9.20595 10.9878-11.58168s8.315-9.79988 8.315-9.79988 2.3758-17.81797 2.3758-20.1937-4.7515-23.16336-4.4545-24.05426z" fill="#20639b" fill-rule="evenodd" opacity=".9" stroke="#000"/></svg>