<svg xmlns="http://www.w3.org/2000/svg" width="1182" height="635"><path fill="#f6d55c" fill-rule="evenodd" stroke="#000" d="M395.713 321.282s15.145-2.08 17.52-1.782c2.377.297 41.576 3.266 44.843 3.266s44.248.891 47.217.891 31.479.297 31.479.297 2.672 28.509 2.375 32.37.297 38.308.297 38.308-5.939-5.642-10.69-5.642c-4.752 0-12.473.297-14.552.594s-2.97 2.672-5.642 2.97-13.067-.298-16.036-.891-2.376-3.267-4.752-3.267-2.078.89-5.94.594c-3.86-.297-1.78-3.564-6.532-4.158s-7.127.891-9.8.297-7.127-7.424-10.394-7.72c-3.267-.298-5.642-.298-7.721-.892s-2.97-.297-3.86-4.751 3.86-37.418 1.484-37.715-49.89-2.97-49.89-2.97z" opacity=".9"/></svg>