<svg height="635" width="1182" xmlns="http://www.w3.org/2000/svg"><path d="m395.71272 321.28158s15.1453-2.07877 17.521-1.7818c2.3758.29697 41.5753 3.26663 44.8419 3.26663s44.248.8909 47.2176.8909c2.9697 0 31.4784.29696 31.4784.29696s2.6727 28.50875 2.3758 32.36931c-.297 3.86056.2969 38.30863.2969 38.30863s-5.9393-5.64235-10.6907-5.64235c-4.7515 0-12.4726.29696-14.5514.59393-2.0787.29697-2.9696 2.67269-5.6423 2.96966s-13.0665-.29697-16.0362-.8909-2.3757-3.26663-4.7515-3.26663c-2.3757 0-2.0787.8909-5.9393.59394-3.8606-.29697-1.7818-3.5636-6.5332-4.15753-4.7515-.59393-7.1272.8909-9.7999.29697-2.6727-.59394-7.1272-7.42416-10.3938-7.72112-3.2667-.29697-5.6424-.29697-7.7212-.8909-2.0787-.59393-2.9696-.29697-3.8605-4.75146s3.8605-37.41773 1.4848-37.7147-49.8903-2.96966-49.8903-2.96966z" fill="#f6d55c" fill-rule="evenodd" opacity=".9" stroke="#000"/></svg>