<svg height="635" width="1182" xmlns="http://www.w3.org/2000/svg"><path d="m107.95252 68.563388s13.6605 4.751458 13.9574 6.236289c.297 1.48483-1.4848 5.048424-.5939 8.018087.8909 2.96966 0 5.04842 2.9697 5.64235 2.9696.59394 12.4726-1.18786 16.3331.59394 3.8606 1.78179.8909 4.45449 6.8302 5.64235 5.9394 1.187873 15.4423-1.18786 23.1634-1.48483 7.7211-.29696 38.0117 8.018096 38.0117 8.018096s1.4848 6.53325.5939 9.20595c-.8909 2.67269-14.5514 17.22403-14.5514 20.78763 0 3.56359 6.5333 2.67269 2.9697 10.69078-3.5636 8.01808-6.2363 26.13302-6.5332 28.80571-.297 2.6727-1.7818 11.87865-1.7818 11.87865s-37.7147-8.01809-45.1389-9.79988c-7.4241-1.7818-35.339-9.79989-42.1692-11.58168-6.830201-1.7818-24.351201-7.12719-24.351201-7.12719s.5939-10.69078.8909-12.17561c.2969-1.48483-.5939-6.83022-.5939-6.83022s11.2847-16.33314 13.3634-20.1937c2.0788-3.86056 12.472601-29.696616 13.066501-31.478416.594-1.7818 5.0485-15.442239 5.0485-15.442239z" fill="#20639b" fill-rule="evenodd" opacity=".9" stroke="#000"/></svg>