<svg xmlns="http://www.w3.org/2000/svg" width="1182" height="635"><path fill="#20639b" fill-rule="evenodd" stroke="#000" d="M107.953 68.563s13.66 4.752 13.957 6.237-1.485 5.048-.594 8.018c.89 2.97 0 5.048 2.97 5.642s12.472-1.188 16.333.594.89 4.455 6.83 5.642 15.442-1.187 23.163-1.484c7.722-.297 38.012 8.018 38.012 8.018s1.485 6.533.594 9.206c-.89 2.672-14.551 17.224-14.551 20.787 0 3.564 6.533 2.673 2.97 10.691s-6.237 26.133-6.534 28.806c-.297 2.672-1.782 11.878-1.782 11.878s-37.714-8.018-45.139-9.8c-7.424-1.781-35.339-9.8-42.169-11.581-6.83-1.782-24.351-7.127-24.351-7.127s.594-10.691.89-12.176c.298-1.485-.593-6.83-.593-6.83s11.285-16.333 13.363-20.194c2.08-3.86 12.473-29.697 13.067-31.478s5.048-15.443 5.048-15.443z" opacity=".9"/></svg>