<svg xmlns="http://www.w3.org/2000/svg" width="1182" height="635"><path fill="#173f5f" fill-rule="evenodd" stroke="#000" d="M844.429 194.18s-7.722-13.066-11.285-12.473c-3.564.594-13.958 4.455-19.303 5.346-5.345.89-33.26 5.345-33.26 5.345s-9.503 2.376-12.176 1.485-3.563-2.97-3.563-2.97-4.752 3.267-5.94 5.049c-1.187 1.782-3.86 5.048-3.86 5.048s2.673 19.006 3.563 22.57 4.158 20.193 4.158 20.193 9.8-.89 21.085-2.672 51.672-9.206 51.672-9.206.297-1.782 2.078-3.267 2.97 2.079 4.752-.297 6.533-9.8 5.642-10.988c-.89-1.187-2.079-.594-3.86-3.266-1.782-2.673-2.97-12.77-2.673-14.849.297-2.078 3.267-4.751 2.97-5.048z" opacity=".9"/></svg>