<svg height="635" width="1182" xmlns="http://www.w3.org/2000/svg"><path d="m844.42862 194.18007s-7.7212-13.06651-11.2847-12.47258c-3.5636.59393-13.9575 4.45449-19.3028 5.34539-5.3454.8909-33.2603 5.34539-33.2603 5.34539s-9.5029 2.37573-12.1756 1.48483-3.5636-2.96966-3.5636-2.96966-4.7514 3.26663-5.9393 5.04842c-1.1878 1.7818-3.8605 5.04843-3.8605 5.04843s2.6727 19.00583 3.5636 22.56943c.8909 3.56359 4.1575 20.19369 4.1575 20.19369s9.7999-.89089 21.0846-2.67269 51.6721-9.20595 51.6721-9.20595.2969-1.7818 2.0787-3.26663 2.9697 2.07876 4.7515-.29697 6.5333-9.79988 5.6424-10.98774c-.8909-1.18787-2.0788-.59394-3.8606-3.26663-1.7818-2.6727-2.9697-12.76954-2.6727-14.84831.297-2.07876 3.2666-4.75146 2.9697-5.04842z" fill="#173f5f" fill-rule="evenodd" opacity=".9" stroke="#000"/></svg>