<svg height="635" width="1182" xmlns="http://www.w3.org/2000/svg"><path d="m783.79462 407.159s-13.8591-15.11905-15.539-16.79894c-1.6799-1.6799-7.5595-7.9795-10.9193-10.07937-3.3598-2.09986-12.1793-15.11904-12.1793-15.11904s-8.3994-2.51985-11.3392-5.87963c-2.9399-3.35979-1.26-7.13955.8399-8.39948 2.0999-1.25992 13.8591-6.2996 15.539-6.2996s19.3188-2.09987 19.3188-2.09987l5.4597 6.29961 18.4788-2.51984s8.8195 9.23941 11.7593 11.75926c2.9398 2.51984 11.7592 6.2996 11.7592 6.2996s-6.2996 1.67989-7.1395 5.03968c-.84 3.35979-.84 8.39947-4.1998 11.33929-3.3597 2.93981-9.6594 8.81944-11.7592 11.33928-2.0999 2.51984-9.6594 15.53902-10.0794 15.11905z" fill="#f6d55c" fill-rule="evenodd" opacity=".9" stroke="#000"/></svg>