<svg height="635" width="1182" xmlns="http://www.w3.org/2000/svg"><path d="m501.13572 136.56864s0 5.34539 1.4848 7.12718c1.4849 1.7818 4.7515 5.04843 4.7515 5.04843l-1.7818 37.7147s-1.4848.59393-1.4848 1.78179c0 1.18787 3.8605 8.31506 3.8605 10.09685 0 1.7818-1.4848 7.72112-1.4848 7.72112s-8.0181-5.64235-10.9877-5.93932c-2.9697-.29697-8.909-.8909-8.909-.8909l-3.5636 2.07877s-1.1879-4.15753-8.612-5.04843c-7.4242-.8909-27.9149-2.07876-40.3874-2.37573-12.4726-.29696-29.3997-2.37573-33.2602-2.37573-3.8606 0-11.5817.8909-11.5817.8909s3.2666-22.27246 2.9696-25.53909c-.2969-3.26662 2.3758-18.4119 2.0788-23.75729s.5939-13.66044.5939-13.66044 27.6179 1.18786 33.8542 1.7818c6.2363.59393 27.6178.59393 34.745 1.18786s25.5391 2.37573 29.1027 2.37573 8.909 1.48483 8.612 1.7818z" fill="#f6d55c" fill-rule="evenodd" opacity=".9" stroke="#000"/></svg>