<svg xmlns="http://www.w3.org/2000/svg" width="1182" height="635"><path fill="#f6d55c" fill-rule="evenodd" stroke="#000" d="M501.136 136.569s0 5.345 1.485 7.127c1.484 1.782 4.751 5.048 4.751 5.048l-1.782 37.715s-1.485.594-1.485 1.782 3.86 8.315 3.86 10.097c0 1.781-1.484 7.72-1.484 7.72s-8.018-5.642-10.988-5.939l-8.909-.89-3.563 2.078s-1.188-4.157-8.612-5.048-27.915-2.079-40.388-2.376-29.4-2.376-33.26-2.376-11.581.891-11.581.891 3.266-22.272 2.97-25.539c-.298-3.266 2.375-18.412 2.078-23.757s.594-13.66.594-13.66 27.618 1.187 33.854 1.781 27.618.594 34.745 1.188 25.54 2.376 29.103 2.376 8.909 1.485 8.612 1.782z" opacity=".9"/></svg>