<svg xmlns="http://www.w3.org/2000/svg" width="1182" height="635"><path fill="#f77f00" fill-rule="evenodd" stroke="#000" d="M645.461 325.142s69.787-5.048 73.945-5.642 34.15-4.752 34.15-4.752-5.938 9.8-7.126 11.285-3.564-.297-8.018.594c-4.455.89-1.188 3.267-5.346 7.127-4.157 3.86-11.284 6.236-14.254 10.988s-3.564 10.394-3.564 10.394-16.63 2.672-21.678 2.672-22.273 2.08-30.885 2.97-31.181 1.485-35.636 2.079c-4.454.594-13.363-.594-13.363-.594s-.297-11.879 3.86-15.442c4.158-3.564 7.425-15.443 7.425-15.443l21.381-3.266z" opacity=".9"/></svg>