<svg height="635" width="1182" xmlns="http://www.w3.org/2000/svg"><path d="m645.46132 325.14214s69.787-5.04843 73.9445-5.64236 34.1511-4.75146 34.1511-4.75146-5.9393 9.79988-7.1272 11.28471c-1.1878 1.48484-3.5636-.29696-8.018.59394-4.4545.8909-1.1879 3.26662-5.3454 7.12718-4.1576 3.86056-11.2847 6.23629-14.2544 10.98775s-3.5636 10.39382-3.5636 10.39382-16.6301 2.67269-21.6785 2.67269c-5.0485 0-22.2725 2.07876-30.8845 2.96966s-31.1815 1.48483-35.6359 2.07877c-4.4545.59393-13.3635-.59394-13.3635-.59394s-.297-11.87864 3.8605-15.44224c4.1576-3.56359 7.4242-15.44223 7.4242-15.44223l21.3816-3.26663z" fill="#f77f00" fill-rule="evenodd" opacity=".9" stroke="#000"/></svg>