<svg height="635" width="1182" xmlns="http://www.w3.org/2000/svg"><path d="m392.74312 330.78449 52.8599 3.5636s-.8909 25.83605-1.4848 28.50875c-.5939 2.67269-3.8606 11.28471 1.4848 13.06651 5.3454 1.78179 7.7212 1.48483 10.0969 1.78179 2.3757.29697 8.0181 7.42416 9.7999 7.42416s8.0181-2.07877 10.3938-1.48483c2.3757.59393 2.3757 3.86056 4.1575 4.75145 1.7818.8909 6.5333-.29696 7.7211-.29696 1.1879 0 4.1576 3.86056 6.8303 3.86056 2.6726 0 13.0665.29696 14.8483.29696s2.9696-2.67269 5.3454-2.67269c2.3757 0 10.3938-3.26663 14.5513-1.48483s9.2059 9.20595 11.8786 9.20595 6.2363 1.48483 6.2363 1.48483.8909 13.36348 1.4849 14.84831c.5939 1.48483-1.1879 12.47257.2969 15.44224 1.4849 2.96966 2.3758 6.83022 4.1575 10.69078 1.7818 3.86056 6.5333 4.75146 5.3454 9.50291-1.1878 4.75146-4.7514 25.24213-4.7514 25.24213s-13.0665 4.75145-15.1453 6.53325-7.7211 12.76955-12.4726 15.14527c-4.7514 2.37573-11.8786 8.01809-19.5997 11.58168-7.7212 3.5636-19.0059 17.81797-19.3028 20.78763-.297 2.96967 2.9696 20.78763 3.2666 22.56943s4.4545 5.34539-.5939 5.93932c-5.0485.59394-21.6786-2.96966-26.1331-6.53325-4.4545-3.5636-12.7695-10.69078-14.8483-14.55134-2.0787-3.86056.594-12.17561-2.3757-15.44224s-9.7999-7.12719-12.7695-11.58168c-2.9697-4.45449-4.1576-12.76955-8.0181-19.00583-3.8606-6.23629-6.2363-12.47258-13.6605-14.84831-7.4241-2.37573-13.6604-3.5636-18.7088-1.7818-5.0485 1.7818-2.6727 12.76955-9.503 12.76955-6.8302 0-16.927-3.5636-20.4906-7.72112-3.5636-4.15753-8.0181-10.39382-9.5029-14.25438-1.4849-3.86056-.594-7.12719-2.0788-9.20595s.5939-5.34539-4.1575-8.01809c-4.7515-2.67269-8.612-3.26662-9.5029-5.93932-.8909-2.67269-5.3454-8.61202-8.0181-10.39381-2.6727-1.7818-6.5333-6.53326-6.5333-6.53326l.8909-2.37573 61.472 4.45449z" fill="#173f5f" fill-rule="evenodd" opacity=".9" stroke="#000"/></svg>