<svg xmlns="http://www.w3.org/2000/svg" width="1182" height="635"><path fill="#173f5f" fill-rule="evenodd" stroke="#000" d="m392.743 330.784 52.86 3.564s-.89 25.836-1.485 28.509c-.594 2.673-3.86 11.285 1.485 13.066s7.721 1.485 10.097 1.782 8.018 7.424 9.8 7.424 8.018-2.078 10.394-1.485c2.375.594 2.375 3.861 4.157 4.752s6.533-.297 7.721-.297 4.158 3.86 6.83 3.86c2.673 0 13.067.297 14.849.297s2.97-2.672 5.345-2.672c2.376 0 10.394-3.267 14.552-1.485s9.205 9.206 11.878 9.206 6.236 1.485 6.236 1.485.891 13.363 1.485 14.848-1.188 12.473.297 15.442c1.485 2.97 2.376 6.83 4.158 10.691 1.782 3.86 6.533 4.752 5.345 9.503s-4.751 25.242-4.751 25.242-13.067 4.752-15.146 6.533-7.72 12.77-12.472 15.146c-4.752 2.375-11.879 8.018-19.6 11.581-7.721 3.564-19.006 17.818-19.303 20.788s2.97 20.788 3.267 22.57 4.454 5.345-.594 5.939-21.679-2.97-26.133-6.534-12.77-10.69-14.848-14.55c-2.08-3.861.594-12.177-2.376-15.443s-9.8-7.127-12.77-11.582c-2.97-4.454-4.157-12.77-8.018-19.006-3.86-6.236-6.236-12.472-13.66-14.848s-13.66-3.564-18.709-1.782-2.673 12.77-9.503 12.77-16.927-3.564-20.49-7.721c-3.564-4.158-8.019-10.394-9.503-14.255-1.485-3.86-.594-7.127-2.08-9.206s.595-5.345-4.157-8.018c-4.751-2.672-8.612-3.266-9.503-5.94-.89-2.672-5.345-8.611-8.018-10.393-2.672-1.782-6.533-6.533-6.533-6.533l.89-2.376 61.473 4.455z" opacity=".9"/></svg>