<svg height="635" width="1182" xmlns="http://www.w3.org/2000/svg"><path d="m847.39822 296.33642c.297-2.67269-1.7818-1.48483-3.8605-3.86056-2.0788-2.37573-4.1576-6.23629-5.3454-8.61202-1.1879-2.37573-.8909-8.61202-3.2666-11.87864-2.3758-3.26663-11.5817-4.75146-13.6605-8.01809s.5939-8.01808-1.7818-10.98775c-2.3757-2.96966-6.8302-5.93932-9.2059-6.23629-2.3758-.29696-1.1879 1.7818-3.8606 2.37573-2.6727.59394-9.2059.8909-9.2059.8909s-2.3758 6.83022-3.2667 8.01809c-.8909 1.18786-2.3757 1.7818-4.1575 4.15752-1.7818 2.37573 1.1879 3.26663-1.4848 5.34539-2.6727 2.07877-7.4242 3.26663-7.4242 3.26663s-4.7514 5.93933-6.2363 9.79989c-1.4848 3.86055-3.5636 6.23628-3.8605 8.01808-.297 1.7818 2.9696 2.07876-.297 3.56359-3.2666 1.48484-9.206 6.53326-12.4726 6.83023-3.2666.29696-9.2059 1.48483-10.3938 1.18786s-1.7818-2.67269-1.7818-2.67269-2.6727-.29697-4.7514 2.07876c-2.0788 2.37573-3.2667 5.04842-4.4545 5.34539-1.1879.29696-3.5636 7.42415-5.9394 8.01808-2.3757.59394-7.7211 5.64236-7.7211 5.64236s14.5514-2.96966 16.6301-2.96966c2.0788 0 15.4423-1.18786 20.4907-1.7818 5.0484-.59393 14.2544-1.78179 19.3028-2.37573 5.0484-.59393 32.6663-6.23629 34.745-6.53325 2.0788-.29697 33.8542-8.61202 33.2602-8.61202z" fill="#3caea3" fill-rule="evenodd" opacity=".9" stroke="#000"/></svg>