<svg xmlns="http://www.w3.org/2000/svg" width="1182" height="635"><path fill="#3caea3" fill-rule="evenodd" stroke="#000" d="M847.398 296.336c.297-2.672-1.782-1.484-3.86-3.86-2.08-2.376-4.158-6.236-5.346-8.612s-.89-8.612-3.266-11.879-11.582-4.751-13.66-8.018.593-8.018-1.783-10.988-6.83-5.939-9.205-6.236-1.188 1.782-3.861 2.376-9.206.89-9.206.89-2.376 6.83-3.267 8.019c-.89 1.188-2.375 1.782-4.157 4.157s1.188 3.267-1.485 5.346c-2.673 2.078-7.424 3.266-7.424 3.266s-4.752 5.94-6.236 9.8c-1.485 3.86-3.564 6.236-3.861 8.018s2.97 2.08-.297 3.564c-3.267 1.485-9.206 6.533-12.473 6.83-3.266.297-9.205 1.485-10.393 1.188s-1.782-2.673-1.782-2.673-2.673-.297-4.752 2.079-3.266 5.048-4.454 5.345-3.564 7.425-5.94 8.019c-2.375.593-7.72 5.642-7.72 5.642s14.55-2.97 16.63-2.97c2.078 0 15.442-1.188 20.49-1.782 5.049-.594 14.255-1.781 19.303-2.375s32.666-6.237 34.745-6.534 33.854-8.612 33.26-8.612z" opacity=".9"/></svg>