<svg height="635" width="1182" xmlns="http://www.w3.org/2000/svg"><path d="m139.43092 16.594312s29.6967 10.393815 35.0421 11.878645c5.3453 1.484832 44.8418 11.284715 44.8418 11.284715s-3.5636 21.678528-5.6423 29.696614c-2.0788 8.018086-5.3454 31.478414-5.3454 31.478414s-13.6605-4.454493-17.521-5.048423c-3.8606-.59393-18.1149-2.375733-23.1634-2.375733-5.0484 0-16.0361 2.375733-19.8967 1.484833-3.8606-.890903-3.5636-5.048423-8.3151-5.048423-4.7514 0-7.4241 0-12.4725 0-5.0485 0-5.3454-4.4545-5.9394-7.12719-.5939-2.672697 2.3758-5.642358.297-7.721121s-12.7695-5.939323-12.7695-5.939323 1.1878-23.163359 1.4848-27.320885.297-17.521004 1.7818-18.114936 6.5333 5.048426 9.7999 5.939324 10.6908 1.187865 12.1756 5.048424c1.4848 3.86056 1.1879 16.630104-.5939 17.224037-1.7818.593932-7.1272.593932-6.8303 2.078763.297 1.48483 5.6424 5.34539 8.3151 2.969661s6.2363-8.612018 6.8302-12.769544-1.7818-10.987747-.8909-12.175612c.8909-1.187864 3.5636.890899 3.5636-2.375729 0-3.266629-4.4545-7.424155-4.4545-7.424155z" fill="#3caea3" fill-rule="evenodd" opacity=".9" stroke="#000"/></svg>