<svg xmlns="http://www.w3.org/2000/svg" width="1182" height="635"><path fill="#3caea3" fill-rule="evenodd" stroke="#000" d="M139.43 16.594s29.698 10.394 35.043 11.879 44.842 11.285 44.842 11.285-3.564 21.678-5.642 29.696c-2.08 8.018-5.346 31.479-5.346 31.479s-13.66-4.455-17.52-5.049c-3.861-.594-18.116-2.375-23.164-2.375s-16.036 2.375-19.897 1.484c-3.86-.89-3.564-5.048-8.315-5.048h-12.473c-5.048 0-5.345-4.455-5.939-7.127-.594-2.673 2.376-5.643.297-7.721s-12.77-5.94-12.77-5.94 1.188-23.163 1.485-27.32.297-17.522 1.782-18.116 6.533 5.049 9.8 5.94 10.69 1.188 12.176 5.048c1.484 3.86 1.188 16.63-.594 17.224s-7.127.594-6.83 2.079 5.642 5.345 8.315 2.97 6.236-8.612 6.83-12.77-1.782-10.988-.891-12.175c.89-1.188 3.563.89 3.563-2.376s-4.454-7.424-4.454-7.424z" opacity=".9"/></svg>