<svg height="635" width="1182" xmlns="http://www.w3.org/2000/svg"><path d="m638.92802 203.08905c0-1.18786 2.0788-5.64235 1.1879-7.72112-.8909-2.07876-3.8606-5.64235-4.1576-8.31505-.2969-2.67269 3.2667-5.93932 3.2667-8.31505s-.594-5.04843-.297-7.72112c.297-2.6727 6.2363-16.92707 6.8302-19.3028.594-2.37573-.2969-8.31505-.2969-8.31505s-3.8606 7.72112-5.0485 9.20595c-1.1878 1.48483-6.2363 5.64235-6.2363 5.64235s-1.1878-4.45449-.5939-6.23628c.5939-1.7818 3.5636-6.83023 3.5636-6.83023s-2.0788-2.37572-2.6727-4.45449c-.5939-2.07876-2.0788-7.42415-2.0788-7.42415s-10.3938-4.15753-16.0361-5.93932c-5.6424-1.7818-20.4907-9.50292-20.4907-9.50292l-8.909-.8909s1.1879-3.26663-1.1878-3.26663c-2.3758 0-10.3939 4.15753-10.3939 4.15753s-6.2362-.8909-7.7211 0c-1.4848.8909-1.1878 12.17561-1.1878 12.17561s-4.1576 4.75146-5.0485 6.53326c-.8909 1.78179-1.1878 22.86639 1.7818 24.64819 2.9697 1.78179 6.2363 2.07876 8.612 4.15752 2.3758 2.07876 8.3151 5.93932 10.0969 8.90899 1.7818 2.96966 3.2666 5.34539 3.2666 9.79988s1.4849 12.76954 3.8606 14.84831c2.3757 2.07876 8.315 7.42415 8.315 7.42415z" fill="#f77f00" fill-rule="evenodd" opacity=".9" stroke="#000"/></svg>