<svg xmlns="http://www.w3.org/2000/svg" width="1182" height="635"><path fill="#f77f00" fill-rule="evenodd" stroke="#000" d="M638.928 203.089c0-1.188 2.079-5.642 1.188-7.721s-3.86-5.642-4.158-8.315c-.297-2.673 3.267-5.94 3.267-8.315s-.594-5.049-.297-7.721c.297-2.673 6.236-16.927 6.83-19.303s-.297-8.315-.297-8.315-3.86 7.721-5.048 9.206-6.236 5.642-6.236 5.642-1.188-4.454-.594-6.236 3.563-6.83 3.563-6.83-2.079-2.376-2.672-4.455c-.594-2.079-2.08-7.424-2.08-7.424s-10.393-4.158-16.035-5.94c-5.643-1.781-20.491-9.502-20.491-9.502l-8.91-.891s1.189-3.267-1.187-3.267-10.394 4.158-10.394 4.158-6.236-.891-7.72 0c-1.486.89-1.189 12.175-1.189 12.175s-4.157 4.752-5.048 6.534c-.891 1.781-1.188 22.866 1.782 24.648s6.236 2.079 8.612 4.157c2.375 2.08 8.315 5.94 10.097 8.91 1.781 2.969 3.266 5.345 3.266 9.8s1.485 12.769 3.86 14.848c2.376 2.078 8.316 7.424 8.316 7.424z" opacity=".9"/></svg>