<svg height="635" width="1182" xmlns="http://www.w3.org/2000/svg"><path d="m759.49632 224.76758 4.4544 20.1937 12.4726-2.37573 5.0484 8.31505s9.206-9.20595 13.0666-9.20595c3.8605 0 10.3938-1.18786 12.1756 2.07876 1.7818 3.26663-.297 5.93933-2.9697 5.93933s-7.1272 0-7.1272 0l-2.6727 10.39381-4.1575 2.6727s3.2666-.59394.297 2.96966c-2.9697 3.56359-9.503 5.34539-9.503 5.34539l-4.7514 8.31505-4.1575 8.61202s3.2666 1.7818.8909 3.26663c-2.3758 1.48483-5.0485 2.96966-7.1272 4.15752-2.0788 1.18787-15.4423 5.34539-16.9271 4.75146s.297 0-2.9697-2.96966c-3.2666-2.96966-9.7998-5.93932-10.3938-8.61202-.5939-2.67269-1.7818-5.93932-1.7818-10.69078s4.4545-10.39382 4.7515-13.06651c.297-2.6727 18.1149-17.521 19.0058-19.3028s2.3758-21.0846 2.3758-20.78763z" fill="#ed553b" fill-rule="evenodd" opacity=".9" stroke="#000"/></svg>