<svg xmlns="http://www.w3.org/2000/svg" width="1182" height="635"><path fill="#ed553b" fill-rule="evenodd" stroke="#000" d="m759.496 224.768 4.455 20.193 12.472-2.375 5.049 8.315s9.206-9.206 13.066-9.206 10.394-1.188 12.176 2.078-.297 5.94-2.97 5.94h-7.127l-2.673 10.394-4.157 2.672s3.266-.594.297 2.97c-2.97 3.563-9.503 5.345-9.503 5.345l-4.752 8.315-4.157 8.612s3.267 1.782.89 3.267c-2.375 1.485-5.048 2.97-7.126 4.158-2.08 1.187-15.443 5.345-16.927 4.751s.297 0-2.97-2.97-9.8-5.939-10.394-8.612-1.782-5.939-1.782-10.69 4.455-10.394 4.752-13.067 18.115-17.521 19.006-19.303 2.375-21.084 2.375-20.787z" opacity=".9"/></svg>